<svg xmlns="http://www.w3.org/2000/svg" viewBox="0 0 400 300" fill="none">
  <rect width="400" height="300" fill="#0f0f18"/>
  <rect x="100" y="40" width="200" height="220" rx="20" fill="#1a1a2e" stroke="#3b5bdb" stroke-width="2"/>
  <rect x="115" y="55" width="170" height="25" rx="4" fill="#0f0f18"/>
  <circle cx="200" cy="67" r="3" fill="#3b5bdb"/>
  <rect x="120" y="95" width="120" height="30" rx="15" fill="#3b5bdb" opacity="0.2"/>
  <text x="180" y="115" fill="#a0aec0" font-family="system-ui" font-size="11" text-anchor="middle">How can I help?</text>
  <rect x="160" y="135" width="120" height="25" rx="12" fill="#fbbf24" opacity="0.9"/>
  <text x="220" y="152" fill="#0f0f18" font-family="system-ui" font-size="10" text-anchor="middle">Reset password</text>
  <rect x="120" y="170" width="140" height="40" rx="15" fill="#3b5bdb" opacity="0.2"/>
  <text x="190" y="186" fill="#a0aec0" font-family="system-ui" font-size="10" text-anchor="middle">I&apos;ve sent a reset link</text>
  <text x="190" y="200" fill="#a0aec0" font-family="system-ui" font-size="10" text-anchor="middle">to your email!</text>
  <rect x="130" y="220" width="140" height="25" rx="12" fill="#0f0f18" stroke="#a0aec0" stroke-width="1"/>
  <text x="200" y="237" fill="#a0aec0" font-family="system-ui" font-size="10" text-anchor="middle">Type a message...</text>
  <circle cx="60" cy="150" r="25" fill="#3b5bdb" opacity="0.2" stroke="#3b5bdb" stroke-width="2"/>
  <text x="60" y="155" fill="#3b5bdb" font-family="system-ui" font-size="20" text-anchor="middle">AI</text>
  <circle cx="340" cy="150" r="25" fill="#fbbf24" opacity="0.2" stroke="#fbbf24" stroke-width="2"/>
  <path d="M330 145 C330 140 335 135 340 135 C345 135 350 140 350 145 C350 150 345 152 345 155 L335 155 C335 152 330 150 330 145" fill="none" stroke="#fbbf24" stroke-width="2"/>
  <circle cx="340" cy="160" r="2" fill="#fbbf24"/>
  <text x="200" y="285" fill="#a0aec0" font-family="system-ui" font-size="12" text-anchor="middle">AI-Powered Customer Support</text>
</svg>
