<svg xmlns="http://www.w3.org/2000/svg" viewBox="0 0 400 300" fill="none">
  <rect width="400" height="300" fill="#0f0f18"/>
  <rect x="50" y="80" width="120" height="140" rx="8" fill="#1a1a2e" stroke="#3b5bdb" stroke-width="2"/>
  <rect x="60" y="100" width="100" height="10" rx="2" fill="#3b5bdb" opacity="0.5"/>
  <rect x="60" y="120" width="80" height="8" rx="2" fill="#a0aec0" opacity="0.3"/>
  <rect x="60" y="135" width="90" height="8" rx="2" fill="#a0aec0" opacity="0.3"/>
  <rect x="60" y="150" width="70" height="8" rx="2" fill="#a0aec0" opacity="0.3"/>
  <rect x="60" y="180" width="40" height="20" rx="4" fill="#3b5bdb"/>
  <path d="M200 150 L250 150" stroke="#3b5bdb" stroke-width="3" stroke-dasharray="8 4"/>
  <circle cx="225" cy="150" r="8" fill="#3b5bdb"/>
  <polygon points="250,150 240,145 240,155" fill="#3b5bdb"/>
  <rect x="280" y="60" width="80" height="180" rx="8" fill="#1a1a2e" stroke="#fbbf24" stroke-width="2"/>
  <circle cx="320" cy="90" r="15" fill="#fbbf24" opacity="0.2" stroke="#fbbf24" stroke-width="2"/>
  <rect x="295" y="115" width="50" height="6" rx="2" fill="#a0aec0" opacity="0.3"/>
  <circle cx="320" cy="145" r="15" fill="#fbbf24" opacity="0.2" stroke="#fbbf24" stroke-width="2"/>
  <rect x="295" y="170" width="50" height="6" rx="2" fill="#a0aec0" opacity="0.3"/>
  <circle cx="320" cy="200" r="15" fill="#fbbf24" opacity="0.2" stroke="#fbbf24" stroke-width="2"/>
  <rect x="295" y="225" width="50" height="6" rx="2" fill="#a0aec0" opacity="0.3"/>
  <text x="110" y="260" fill="#a0aec0" font-family="system-ui" font-size="12" text-anchor="middle">Data Sources</text>
  <text x="320" y="260" fill="#a0aec0" font-family="system-ui" font-size="12" text-anchor="middle">Qualified Leads</text>
</svg>
