<svg xmlns="http://www.w3.org/2000/svg" viewBox="0 0 400 300" fill="none">
  <rect width="400" height="300" fill="#0f0f18"/>
  <rect x="30" y="50" width="340" height="200" rx="8" fill="#1a1a2e" stroke="#3b5bdb" stroke-width="2"/>
  <rect x="40" y="60" width="320" height="30" rx="4" fill="#0f0f18"/>
  <circle cx="55" cy="75" r="5" fill="#ff5f56"/>
  <circle cx="75" cy="75" r="5" fill="#ffbd2e"/>
  <circle cx="95" cy="75" r="5" fill="#27ca40"/>
  <line x1="60" y1="120" x2="60" y2="220" stroke="#a0aec0" stroke-width="1" opacity="0.3"/>
  <line x1="120" y1="120" x2="120" y2="220" stroke="#a0aec0" stroke-width="1" opacity="0.3"/>
  <line x1="180" y1="120" x2="180" y2="220" stroke="#a0aec0" stroke-width="1" opacity="0.3"/>
  <line x1="240" y1="120" x2="240" y2="220" stroke="#a0aec0" stroke-width="1" opacity="0.3"/>
  <line x1="300" y1="120" x2="300" y2="220" stroke="#a0aec0" stroke-width="1" opacity="0.3"/>
  <line x1="60" y1="140" x2="340" y2="140" stroke="#a0aec0" stroke-width="1" opacity="0.3"/>
  <line x1="60" y1="170" x2="340" y2="170" stroke="#a0aec0" stroke-width="1" opacity="0.3"/>
  <line x1="60" y1="200" x2="340" y2="200" stroke="#a0aec0" stroke-width="1" opacity="0.3"/>
  <polyline points="60,180 100,160 140,175 180,140 220,155 260,130 300,145 340,120" stroke="#3b5bdb" stroke-width="3" fill="none"/>
  <polyline points="60,200 100,190 140,195 180,180 220,185 260,170 300,175 340,160" stroke="#fbbf24" stroke-width="3" fill="none"/>
  <circle cx="180" cy="140" r="6" fill="#3b5bdb"/>
  <circle cx="260" cy="130" r="6" fill="#3b5bdb"/>
  <rect x="250" y="100" width="60" height="20" rx="4" fill="#27ca40" opacity="0.9"/>
  <text x="280" y="114" fill="white" font-family="system-ui" font-size="10" text-anchor="middle">-5%</text>
  <circle cx="60" cy="180" r="4" fill="#3b5bdb"/>
  <circle cx="340" cy="120" r="4" fill="#3b5bdb"/>
  <circle cx="60" cy="200" r="4" fill="#fbbf24"/>
  <circle cx="340" cy="160" r="4" fill="#fbbf24"/>
  <text x="200" y="280" fill="#a0aec0" font-family="system-ui" font-size="12" text-anchor="middle">Real-time Price Tracking Dashboard</text>
</svg>
