<?xml version="1.0" encoding="UTF-8"?>
<svg xmlns="http://www.w3.org/2000/svg" xml:space="preserve" width="64px" height="49px"
  version="1.1"
  style="shape-rendering:geometricPrecision; text-rendering:geometricPrecision; image-rendering:optimizeQuality; fill-rule:evenodd; clip-rule:evenodd"
  viewBox="0 0 64.432 49.027"
  xmlns:xlink="http://www.w3.org/1999/xlink"
  xmlns:xodm="http://www.corel.com/coreldraw/odm/2003">
 <defs>
  <style type="text/css">
   <![CDATA[
    .fil0 {fill:#3F5AF3;fill-rule:nonzero}
    .fil1 {fill:#FBAF00;fill-rule:nonzero}
   ]]>
  </style>
 </defs>
 <g id="Layer_x0020_1">
  <metadata id="CorelCorpID_0Corel-Layer"/>
  <path class="fil0" d="M7.208 0.146c-3.222,0.71 -5.788,3.03 -6.88,6.197l-0.328 1.011 0 15.671 0 15.671 0.273 0.682c0.573,1.393 1.802,2.621 3.194,3.195 0.628,0.245 0.983,0.273 3.249,0.327l2.567 0.055 0.245 0.764c0.792,2.266 2.758,4.177 5.16,4.942 0.71,0.218 1.174,0.273 2.403,0.273 1.338,0 1.638,-0.055 2.457,-0.355 1.119,-0.41 2.129,-1.037 2.894,-1.747 0.764,-0.71 1.693,-2.184 1.993,-3.085l0.246 -0.765 9.719 0 9.747 0 0.163 0.519c0.738,2.484 3.004,4.614 5.652,5.296 3.959,1.011 8.272,-1.419 9.419,-5.296 0.109,-0.41 0.218,-0.546 0.491,-0.601 2.239,-0.491 3.823,-1.966 4.369,-4.04 0.163,-0.628 0.191,-1.912 0.191,-8.6 0,-8.437 -0.028,-8.983 -0.683,-10.866 -1.037,-3.058 -3.358,-5.597 -6.361,-6.962 -2.075,-0.956 -2.239,-0.983 -8.655,-1.038l-5.76 -0.027 -0.055 -1.993c-0.055,-1.802 -0.109,-2.075 -0.437,-3.085 -0.519,-1.529 -1.065,-2.375 -2.239,-3.577 -1.146,-1.146 -2.184,-1.802 -3.658,-2.32l-1.01 -0.355 -13.787 -0.027c-11.139,-0.028 -13.979,0 -14.579,0.136zm28.803 3.959c1.174,0.546 2.129,1.501 2.73,2.675l0.464 0.956 0.027 15.78 0.028 15.78 -7.317 0 -7.317 0 -0.082 -0.409c-0.164,-0.765 -0.983,-2.239 -1.72,-3.058 -0.874,-0.955 -1.966,-1.693 -3.276,-2.157 -0.846,-0.327 -1.119,-0.355 -2.457,-0.355 -1.229,0 -1.693,0.028 -2.403,0.273 -2.402,0.765 -4.368,2.649 -5.16,4.969l-0.273 0.765 -2.157 0c-2.402,0 -2.73,-0.082 -3.248,-0.901 -0.246,-0.41 -0.246,-0.628 -0.219,-15.535l0.027 -15.125 0.41 -0.846c0.71,-1.529 2.211,-2.812 3.658,-3.14 0.301,-0.054 6.116,-0.109 13.951,-0.109l13.46 0.027 0.874 0.41zm18.428 11.111c1.447,0.355 2.594,1.011 3.795,2.212 1.447,1.42 2.157,2.839 2.457,4.778l0.082 0.546 -8.9 0 -8.928 0 0 -3.85 0 -3.904 5.351 0c4.314,0 5.461,0.055 6.143,0.218zm6.334 16.6c0,6.607 0,6.498 -0.71,7.071 -0.464,0.355 -0.518,0.355 -0.682,-0.219 -1.229,-3.876 -5.488,-6.224 -9.419,-5.214 -2.648,0.682 -4.914,2.785 -5.652,5.269 -0.163,0.546 -0.163,0.546 -0.764,0.546l-0.601 0 0 -6.771 0 -6.77 8.928 0 8.928 0 -0.028 6.088 0 0zm-41.962 5.487c0.764,0.383 1.556,1.174 2.02,2.021 0.246,0.464 0.3,0.737 0.3,1.802 0,1.064 -0.027,1.337 -0.3,1.802 -0.464,0.846 -1.228,1.638 -2.048,2.02 -0.627,0.3 -0.846,0.355 -1.856,0.355 -0.928,0 -1.256,-0.055 -1.72,-0.301 -0.928,-0.464 -1.584,-1.092 -2.02,-1.965 -1.174,-2.348 -0.11,-4.996 2.375,-5.925 0.928,-0.327 2.348,-0.245 3.249,0.191zm34.782 -0.082c0.819,0.383 1.693,1.202 2.075,2.048 0.3,0.628 0.355,0.846 0.355,1.857 0,0.901 -0.055,1.255 -0.273,1.72 -0.382,0.846 -1.202,1.692 -2.048,2.075 -0.628,0.3 -0.874,0.354 -1.856,0.354 -1.338,0 -1.993,-0.245 -2.894,-1.064 -1.884,-1.748 -1.748,-4.805 0.327,-6.498 1.065,-0.846 2.976,-1.065 4.314,-0.492z"/>
  <path class="fil1" d="M21.213 9.811c-0.518,0.327 -0.682,0.628 -0.682,1.365l0 0.601 2.566 2.566 2.566 2.566 -6.798 0 -6.77 0 -0.437 0.382c-0.819,0.71 -0.71,1.83 0.191,2.403 0.409,0.246 0.655,0.246 7.126,0.246l6.688 0 -2.566 2.566 -2.566 2.566 0 0.656c0,0.518 0.054,0.709 0.355,1.037 0.409,0.464 1.119,0.628 1.638,0.41 0.191,-0.082 2.293,-2.075 4.641,-4.451l4.286 -4.286 -4.368 -4.368c-4.259,-4.259 -4.395,-4.368 -4.941,-4.45 -0.355,-0.055 -0.628,0 -0.929,0.191z"/>
 </g>
</svg>