<svg version="1.1" xmlns="http://www.w3.org/2000/svg" xmlns:xlink="http://www.w3.org/1999/xlink"
  x="0px" y="0px" viewBox="0 0 256 256" enable-background="new 0 0 256 256" xml:space="preserve">
<metadata> Svg Vector Icons : http://www.onlinewebfonts.com/icon </metadata>
<g><g><path fill="#FBAF00" d="M81.4,148.6c0,1.6,1.3,3,3,3h88.5c1.6,0,3-1.3,3-3s-1.3-3-3-3H84.4C82.7,145.7,81.4,147,81.4,148.6z" data-title="Layer 0" xs="0"></path><path fill="#FBAF00" d="M172.9,163.4H84.4c-1.6,0-3,1.3-3,3c0,1.6,1.3,3,3,3h88.5c1.6,0,3-1.3,3-3C175.8,164.7,174.5,163.4,172.9,163.4z" data-title="Layer 1" xs="1"></path><path fill="#FBAF00" d="M63.7,145.7H51.9c-3.3,0-5.9,2.6-5.9,5.9v11.8c0,3.3,2.6,5.9,5.9,5.9h11.8c3.3,0,5.9-2.7,5.9-5.9v-11.8C69.6,148.3,67,145.7,63.7,145.7z" data-title="Layer 2" xs="2"></path><path fill="#FBAF00" d="M84.4,110.3h47.2c1.6,0,3-1.3,3-3s-1.3-3-3-3H84.4c-1.6,0-3,1.3-3,3S82.7,110.3,84.4,110.3z" data-title="Layer 3" xs="3"></path><path fill="#FBAF00" d="M84.4,128h47.2c1.6,0,3-1.3,3-3c0-1.6-1.3-3-3-3H84.4c-1.6,0-3,1.3-3,3C81.4,126.7,82.7,128,84.4,128z" data-title="Layer 4" xs="4"></path><path fill="#FBAF00" d="M63.7,104.4H51.9c-3.3,0-5.9,2.6-5.9,5.9v11.8c0,3.3,2.6,5.9,5.9,5.9h11.8c3.3,0,5.9-2.6,5.9-5.9v-11.8C69.6,107,67,104.4,63.7,104.4z" data-title="Layer 5" xs="5"></path><path fill="#FBAF00" d="M131.6,187H84.4c-1.6,0-3,1.3-3,3c0,1.6,1.3,3,3,3h47.2c1.6,0,3-1.3,3-3C134.5,188.3,133.2,187,131.6,187z" data-title="Layer 6" xs="6"></path><path fill="#FBAF00" d="M131.6,204.7H84.4c-1.6,0-3,1.3-3,3c0,1.6,1.3,3,3,3h47.2c1.6,0,3-1.3,3-3C134.5,206,133.2,204.7,131.6,204.7z" data-title="Layer 7" xs="7"></path><path fill="#FBAF00" d="M63.7,187H51.9c-3.3,0-5.9,2.6-5.9,5.9v11.8c0,3.3,2.6,5.9,5.9,5.9h11.8c3.3,0,5.9-2.7,5.9-5.9v-11.8C69.6,189.6,67,187,63.7,187z" data-title="Layer 8" xs="8"></path><path fill="#FBAF00" d="M84.4,69h47.2c1.6,0,3-1.3,3-3s-1.3-3-3-3H84.4c-1.6,0-3,1.3-3,3C81.4,67.7,82.7,69,84.4,69z" data-title="Layer 9" xs="9"></path><path fill="#FBAF00" d="M84.4,86.7h47.2c1.6,0,3-1.3,3-3c0-1.6-1.3-3-3-3H84.4c-1.6,0-3,1.3-3,3C81.4,85.4,82.7,86.7,84.4,86.7z" data-title="Layer 10" xs="10"></path><path fill="#FBAF00" d="M63.7,63.1H51.9c-3.3,0-5.9,2.6-5.9,5.9v11.8c0,3.3,2.6,5.9,5.9,5.9h11.8c3.3,0,5.9-2.6,5.9-5.9V69C69.6,65.7,67,63.1,63.7,63.1z" data-title="Layer 11" xs="11"></path><path fill="#3F5AF3" d="M199.4,46.6v-13c0-3.3-2.7-5.9-5.9-5.9h-53.1v-5.9c0-3.3-2.6-5.9-5.9-5.9h-5.9c0-3.3-2.6-5.9-5.9-5.9H99.1c-3.3,0-5.9,2.6-5.9,5.9h-5.9c-3.3,0-5.9,2.6-5.9,5.9v5.9H28.3c-3.3,0-5.9,2.6-5.9,5.9v206.5c0,3.3,2.6,5.9,5.9,5.9h118h47.2c3.3,0,5.9-2.6,5.9-5.9v-47.2v-60.2c19.6-4.6,34.1-22.1,34.1-43C233.6,68.7,219,51.2,199.4,46.6z M189.3,133.9v59h-31.2c-6.5,0-11.8,5.3-11.8,11.8v29.5H40.1c-3.3,0-5.9-2.7-5.9-5.9V45.4c0-3.3,2.6-5.9,5.9-5.9h41.3c0,3.3,2.6,5.9,5.9,5.9h47.2c3.3,0,5.9-2.6,5.9-5.9h43c3.3,0,5.9,2.6,5.9,5.9c-24.4,0-44.3,19.8-44.3,44.2C145,114.1,164.9,133.9,189.3,133.9z M152.2,234.2v-29.5c0-3.3,2.6-5.9,5.9-5.9h27.1l3.8,0.1L152.2,234.2z M116.8,15.9c3.3,0,5.9,2.6,5.9,5.9H99.1c0-3.3,2.6-5.9,5.9-5.9H116.8z M199.4,99.5l-10.1,16.6l-4.1,6.7l-23.7-24.3l8.5-8.2l13.1,13.4l6.3-10.3l10.1-16.6l8.4-13.8l10.1,6.1L199.4,99.5z" data-title="Layer 12" xs="12"></path></g></g>
</svg>