<?xml version="1.0" encoding="UTF-8"?>

<svg xmlns="http://www.w3.org/2000/svg" xml:space="preserve" width="1143px" height="1194px"
  version="1.1"
  style="shape-rendering:geometricPrecision; text-rendering:geometricPrecision; image-rendering:optimizeQuality; fill-rule:evenodd; clip-rule:evenodd"
  viewBox="0 0 1084.312 1132.769"
  xmlns:xlink="http://www.w3.org/1999/xlink"
  xmlns:xodm="http://www.corel.com/coreldraw/odm/2003">
 <defs>
  <style type="text/css">
   <![CDATA[
    .fil1 {fill:#3F5AF3;fill-rule:nonzero}
    .fil0 {fill:#FBAF00;fill-rule:nonzero}
   ]]>
  </style>
 </defs>
 <g id="Layer_x0020_1">
  <metadata id="CorelCorpID_0Corel-Layer"/>
  <g id="_2588438266448">
   <path class="fil0" d="M387.792 3.961c-4.136,2.297 -17.919,14.243 -31.242,27.567l-23.891 23.431 162.642 165.4c89.592,90.51 186.075,189.29 215.019,219.153l52.377 53.755 71.673 -0.919 71.673 -0.919 -234.775 -239.369c-130.023,-132.32 -240.748,-242.586 -247.18,-246.261 -12.406,-6.892 -25.729,-7.811 -36.296,-1.838z"/>
   <path class="fil0" d="M120.396 261.708c-79.024,78.105 -117.158,117.617 -118.536,124.968 -5.973,19.756 1.378,33.081 37.674,70.754l34.458 35.837 249.937 0c157.13,0 249.478,-1.379 248.558,-3.676 -0.919,-3.216 -330.339,-339.528 -334.014,-340.906 -0.919,-0.919 -53.755,50.08 -118.077,113.023z"/>
   <path class="fil1" d="M63.425 544.724c-6.432,2.757 -15.161,10.567 -19.296,17 -7.351,11.486 -7.351,16.08 -6.432,278.881l0.919 267.395 11.945 11.487 11.487 11.945 493.9 0.919c490.224,0.919 493.9,0.919 505.845,-6.432 22.973,-14.243 22.513,-5.973 22.513,-289.908 0,-282.097 0.919,-273.368 -20.675,-288.07 -9.189,-5.972 -33.999,-6.432 -498.954,-7.351 -415.336,-0.919 -491.603,-0.001 -501.252,4.134zm181.48 97.862l-0.919 39.052 -68.456 0 -68.458 0 -0.919 -33.999c-0.459,-18.837 -0.459,-35.836 0.919,-39.053 1.379,-3.675 17,-4.594 70.754,-4.594l68.917 0.001 -1.838 38.593zm550.871 209.965c7.351,4.135 15.622,9.188 19.297,11.027 4.135,3.216 8.729,2.297 19.756,-5.054 7.351,-5.054 21.593,-11.027 30.782,-13.783 66.16,-16.081 128.644,50.538 109.347,116.239 -17.459,60.646 -88.672,86.375 -140.589,50.998l-13.783 -9.189 -10.567 7.351c-61.106,45.485 -147.022,1.379 -147.022,-75.348 0.459,-44.566 27.107,-79.484 70.295,-90.51 16.54,-3.677 47.782,0.458 62.484,8.269z"/>
  </g>
 </g>
</svg>