<?xml version="1.0" encoding="UTF-8"?>

<svg xmlns="http://www.w3.org/2000/svg" xml:space="preserve" width="64px" height="51px"
  version="1.1"
  style="shape-rendering:geometricPrecision; text-rendering:geometricPrecision; image-rendering:optimizeQuality; fill-rule:evenodd; clip-rule:evenodd"
  viewBox="0 0 62.088 49.764"
  xmlns:xlink="http://www.w3.org/1999/xlink"
  xmlns:xodm="http://www.corel.com/coreldraw/odm/2003">
 <defs>
  <style type="text/css">
   <![CDATA[
    .fil0 {fill:#FBAF00}
    .fil1 {fill:#3F5AF3;fill-rule:nonzero}
   ]]>
  </style>
 </defs>
 <g id="Layer_x0020_1">
  <metadata id="CorelCorpID_0Corel-Layer"/>
  <path class="fil0" d="M34.54 2.415c10.657,0 19.292,8.64 19.292,19.291 0,10.657 -8.641,19.292 -19.292,19.292 -5.446,0 -10.363,-2.259 -13.874,-5.887l6.108 0c0.455,0 0.89,-0.065 1.294,-0.192 1.95,0.96 4.148,1.496 6.472,1.496 8.125,0 14.709,-6.589 14.709,-14.709 0,-8.124 -6.584,-14.708 -14.709,-14.708 -2.374,0 -4.618,0.566 -6.609,1.566 -0.48,-0.182 -1.01,-0.283 -1.566,-0.283l-5.674 0c3.506,-3.622 8.418,-5.866 13.849,-5.866l0 0 0 0z"/>
  <path class="fil1" d="M13.324 17.73l-5.629 0 0 -1.491c0,-0.697 -0.075,-1.141 -0.217,-1.333 -0.141,-0.192 -0.379,-0.283 -0.712,-0.283 -0.364,0 -0.637,0.126 -0.824,0.389 -0.187,0.252 -0.278,0.641 -0.278,1.162 0,0.672 0.106,1.177 0.318,1.516 0.208,0.333 0.779,0.747 1.713,1.232 2.688,1.39 4.381,2.532 5.078,3.416 0.703,0.889 1.051,2.319 1.051,4.29 0,1.435 -0.197,2.491 -0.586,3.173 -0.389,0.682 -1.137,1.248 -2.248,1.708 -1.112,0.465 -2.4,0.692 -3.881,0.692 -1.622,0 -3.001,-0.268 -4.153,-0.798 -1.147,-0.531 -1.89,-1.203 -2.249,-2.026 -0.353,-0.824 -0.53,-1.991 -0.53,-3.497l0 -1.324 5.629 0 0 2.451c0,0.753 0.08,1.243 0.237,1.455 0.157,0.217 0.44,0.323 0.839,0.323 0.404,0 0.702,-0.136 0.899,-0.409 0.197,-0.273 0.293,-0.677 0.293,-1.213 0,-1.182 -0.187,-1.96 -0.561,-2.324 -0.389,-0.364 -1.329,-0.975 -2.834,-1.834 -1.506,-0.864 -2.496,-1.491 -2.986,-1.88 -0.485,-0.389 -0.895,-0.929 -1.213,-1.616 -0.318,-0.693 -0.48,-1.572 -0.48,-2.643 0,-1.541 0.227,-2.673 0.682,-3.385 0.455,-0.713 1.187,-1.269 2.208,-1.673 1.016,-0.404 2.239,-0.601 3.679,-0.601 1.571,0 2.91,0.222 4.016,0.657 1.107,0.439 1.84,0.995 2.198,1.662 0.359,0.667 0.541,1.799 0.541,3.401l0 0.803 0 0zm21.196 -17.73c5.998,0 11.424,2.43 15.355,6.361 3.926,3.926 6.357,9.358 6.357,15.356 0,4.385 -1.299,8.468 -3.542,11.884l9.398 10.241 -6.478 5.922 -9.059 -9.969c-3.441,2.294 -7.579,3.638 -12.026,3.638 -5.997,0 -11.424,-2.43 -15.355,-6.361 -0.616,-0.617 -1.197,-1.273 -1.738,-1.961l3.203 0c0.081,0.081 0.162,0.167 0.243,0.248 3.491,3.491 8.317,5.649 13.642,5.649 5.326,0 10.151,-2.158 13.642,-5.649 3.492,-3.492 5.649,-8.317 5.649,-13.642 0,-5.326 -2.152,-10.151 -5.644,-13.643l0 0 0 0c-3.491,-3.491 -8.316,-5.649 -13.642,-5.649 -5.325,0 -10.151,2.158 -13.642,5.649 -0.066,0.066 -0.137,0.137 -0.202,0.202l-3.219 0c0.531,-0.672 1.097,-1.313 1.703,-1.915 3.931,-3.931 9.358,-6.361 15.355,-6.361l0 0 0 0 0 0zm-18.538 11.616l10.383 0 0 4.022 -4.31 0 0 3.845 4.042 0 0 3.82 -4.042 0 0 4.431 4.719 0 0 4.022 -10.792 0 0 -20.14 0 0zm26.85 11.808c0,2.027 -0.056,3.456 -0.167,4.295 -0.106,0.844 -0.45,1.612 -1.031,2.309 -0.581,0.698 -1.364,1.233 -2.354,1.607 -0.991,0.374 -2.138,0.561 -3.451,0.561 -1.248,0 -2.365,-0.177 -3.355,-0.531 -0.991,-0.353 -1.794,-0.879 -2.395,-1.581 -0.607,-0.702 -0.965,-1.475 -1.082,-2.299 -0.111,-0.834 -0.171,-2.284 -0.171,-4.356l0 -3.445c0,-2.027 0.055,-3.457 0.166,-4.295 0.107,-0.844 0.455,-1.612 1.031,-2.309 0.576,-0.698 1.364,-1.233 2.355,-1.607 0.99,-0.374 2.137,-0.561 3.451,-0.561 1.248,0 2.364,0.177 3.355,0.53 0.99,0.354 1.793,0.88 2.395,1.582 0.606,0.707 0.965,1.475 1.081,2.299 0.111,0.834 0.172,2.284 0.172,4.355l0 3.446 0 0zm-6.074 -6.614c0,-0.934 -0.06,-1.531 -0.176,-1.793 -0.117,-0.258 -0.359,-0.389 -0.723,-0.389 -0.308,0 -0.546,0.106 -0.712,0.318 -0.162,0.207 -0.248,0.834 -0.248,1.869l0 9.404c0,1.167 0.056,1.889 0.162,2.162 0.106,0.278 0.359,0.409 0.753,0.409 0.404,0 0.662,-0.156 0.778,-0.47 0.116,-0.313 0.167,-1.066 0.167,-2.248l-0.001 -9.262 0 0z"/>
  <polygon class="fil1" points="15.982,11.616 26.365,11.616 26.365,15.638 22.055,15.638 22.055,19.483 26.097,19.483 26.097,23.303 22.055,23.303 22.055,27.734 26.774,27.734 26.774,31.756 15.982,31.756 15.982,11.616 "/>
 </g>
</svg>