<?xml version="1.0" encoding="UTF-8"?>
<!DOCTYPE svg PUBLIC "-//W3C//DTD SVG 1.1//EN" "http://www.w3.org/Graphics/SVG/1.1/DTD/svg11.dtd">
<!-- Creator: CorelDRAW Standard 2021 (64-Bit) -->
<svg xmlns="http://www.w3.org/2000/svg" xml:space="preserve" width="64px" height="64px" version="1.1" style="shape-rendering:geometricPrecision; text-rendering:geometricPrecision; image-rendering:optimizeQuality; fill-rule:evenodd; clip-rule:evenodd"
viewBox="0 0 71.553 71.562"
 xmlns:xlink="http://www.w3.org/1999/xlink"
 xmlns:xodm="http://www.corel.com/coreldraw/odm/2003">
 <defs>
  <style type="text/css">
   <![CDATA[
    .str0 {stroke:black;stroke-width:0.091;stroke-miterlimit:22.9256}
    .fil0 {fill:#FBAF00}
    .fil1 {fill:#4459EA;fill-rule:nonzero}
   ]]>
  </style>
 </defs>
 <g id="Layer_x0020_1">
  <metadata id="CorelCorpID_0Corel-Layer"/>
  <rect class="fil0 str0" x="10.585" y="13.052" width="49.797" height="44.462"/>
  <g id="_2582205466096">
   <g>
    <g>
     <g>
      <path class="fil1" d="M32.367 0.1c-8.425,0.879 -15.971,4.425 -21.911,10.365 -5.698,5.697 -9.062,12.607 -10.274,20.911 -0.243,1.667 -0.243,7.152 0,8.819 1.182,8.304 4.576,15.244 10.274,20.911 5.667,5.668 12.637,9.092 20.911,10.274 1.637,0.243 7.152,0.243 8.819,0 6.849,-0.97 13.001,-3.576 18.063,-7.698 7.212,-5.818 11.758,-13.971 13.122,-23.487 0.243,-1.667 0.243,-7.152 0,-8.819 -1.182,-8.274 -4.576,-15.244 -10.274,-20.911 -5.546,-5.546 -12.304,-8.941 -20.275,-10.153 -1.757,-0.273 -6.667,-0.424 -8.455,-0.212zm5.273 13.729c1,0.515 1.576,1.06 2.091,1.97l0.485 0.878 0 7.91 0 7.91 -0.363 0.697c-0.425,0.909 -1.303,1.728 -2.182,2.182 -0.576,0.273 -0.91,0.334 -1.879,0.334 -0.97,0 -1.304,-0.061 -1.879,-0.334 -0.879,-0.454 -1.728,-1.303 -2.182,-2.182l-0.364 -0.697 0 -7.91 0 -7.91 0.333 -0.636c0.728,-1.334 1.394,-1.94 2.728,-2.394 0.939,-0.364 2.333,-0.273 3.212,0.182zm-11.698 12.88c-1.182,1.333 -1.697,2.152 -2.333,3.485 -1.879,4.031 -1.607,8.758 0.727,12.577 0.939,1.546 2.879,3.485 4.425,4.425 3.515,2.152 7.758,2.576 11.668,1.151 3.515,-1.272 6.667,-4.424 7.94,-7.94 1.758,-4.879 0.697,-9.971 -2.94,-13.941l-0.697 -0.757 0.03 -2.698 0.031 -2.667 1.182 0.819c2.424,1.636 4.849,4.546 6.061,7.213 1.909,4.182 2.121,9.122 0.576,13.395 -3.698,10.213 -15.396,14.85 -25.033,9.91 -8.456,-4.334 -12.062,-14.638 -8.122,-23.305 1.212,-2.667 3.667,-5.546 6.061,-7.213l1.182 -0.819 0.03 2.667 0.03 2.667 -0.818 1.031z"/>
     </g>
    </g>
   </g>
  </g>
 </g>
</svg>
