<?xml version="1.0" encoding="UTF-8"?>
<!DOCTYPE svg PUBLIC "-//W3C//DTD SVG 1.1//EN" "http://www.w3.org/Graphics/SVG/1.1/DTD/svg11.dtd">
<!-- Creator: CorelDRAW Standard 2021 (64-Bit) -->
<svg xmlns="http://www.w3.org/2000/svg" xml:space="preserve" width="64px" height="73px" version="1.1" style="shape-rendering:geometricPrecision; text-rendering:geometricPrecision; image-rendering:optimizeQuality; fill-rule:evenodd; clip-rule:evenodd"
viewBox="0 0 56.731 64.784"
 xmlns:xlink="http://www.w3.org/1999/xlink"
 xmlns:xodm="http://www.corel.com/coreldraw/odm/2003">
 <defs>
  <style type="text/css">
   <![CDATA[
    .fil0 {fill:#4459EA;fill-rule:nonzero}
    .fil1 {fill:#FBAF00;fill-rule:nonzero}
   ]]>
  </style>
 </defs>
 <g id="Layer_x0020_1">
  <metadata id="CorelCorpID_0Corel-Layer"/>
  <g id="_2582303986784">
   <polygon class="fil0" points="56.704,59.415 50.096,59.415 50.096,10.556 43.489,2.632 18.401,13.215 18.401,17.191 15.769,19.823 15.769,11.872 44.832,0 52.755,10.556 52.755,56.782 56.731,56.782 56.731,59.415 "/>
   <polygon class="fil0" points="26.408,23.771 26.408,59.415 30.356,59.415 30.356,26.404 "/>
   <polygon class="fil0" points="0,64.784 56.731,64.784 56.731,60.809 5.018,60.809 "/>
   <polygon class="fil1" points="11.876,52.834 21.116,50.202 21.116,56.809 11.876,56.809 "/>
   <polygon class="fil1" points="21.143,39.619 21.143,44.91 11.876,47.543 11.823,42.547 "/>
   <polygon class="fil1" points="11.823,31.829 21.116,27.72 21.116,33.011 11.876,36.986 11.823,31.829 "/>
   <polygon class="fil0" points="40.939,59.415 34.331,59.415 34.305,25.49 26.408,19.796 7.928,27.72 7.928,59.415 0.004,59.415 0.004,56.782 5.296,56.782 5.296,26.404 26.434,17.164 36.991,25.087 36.991,56.782 40.939,56.782 "/>
   <polygon class="fil0" points="56.731,60.804 0,60.804 0,64.78 51.712,64.78 "/>
  </g>
 </g>
</svg>
