<?xml version="1.0" encoding="UTF-8"?>
<!DOCTYPE svg PUBLIC "-//W3C//DTD SVG 1.1//EN" "http://www.w3.org/Graphics/SVG/1.1/DTD/svg11.dtd">
<!-- Creator: CorelDRAW Standard 2021 (64-Bit) -->
<svg xmlns="http://www.w3.org/2000/svg" xml:space="preserve" width="64px" height="64px" version="1.1" style="shape-rendering:geometricPrecision; text-rendering:geometricPrecision; image-rendering:optimizeQuality; fill-rule:evenodd; clip-rule:evenodd"
viewBox="0 0 62.777 62.774"
 xmlns:xlink="http://www.w3.org/1999/xlink"
 xmlns:xodm="http://www.corel.com/coreldraw/odm/2003">
 <defs>
  <style type="text/css">
   <![CDATA[
    .str0 {stroke:black;stroke-width:0.081;stroke-miterlimit:22.9256}
    .fil0 {fill:#FBAF00}
    .fil1 {fill:#4459EA;fill-rule:nonzero}
    .fil2 {fill:#FBAF00;fill-rule:nonzero}
   ]]>
  </style>
 </defs>
 <g id="Layer_x0020_1">
  <metadata id="CorelCorpID_0Corel-Layer"/>
  <g id="_2582205461680">
   <rect class="fil0 str0" x="19.496" y="42.758" width="23.455" height="15.018"/>
   <g>
    <rect class="fil0 str0" transform="matrix(0.531091 -0.847315 2.0514 1.2858 9.45483 12.7739)" width="5.133" height="4.24"/>
    <rect class="fil0 str0" transform="matrix(-0.0676757 -0.995527 2.40317 -0.146508 8.52812 25.0834)" width="5.133" height="4.24"/>
    <rect class="fil0 str0" transform="matrix(-0.433726 -0.89863 2.17554 -1.03135 11.628 36.1065)" width="5.133" height="4.24"/>
    <rect class="fil0 str0" transform="matrix(0.335031 -0.939898 2.26216 0.824213 41.3507 32.2787)" width="5.133" height="4.24"/>
    <rect class="fil0 str0" transform="matrix(0.0183236 -0.997657 2.40686 0.0610289 44.4574 25.32)" width="5.133" height="4.24"/>
    <rect class="fil0 str0" transform="matrix(-0.515006 -0.854648 2.07079 -1.22821 43.854 18.7097)" width="5.133" height="4.24"/>
    <g>
     <path class="fil1" d="M29.387 0.034c-4.867,0.426 -8.67,1.49 -12.606,3.538 -5.718,2.978 -10.585,7.925 -13.483,13.695 -2.234,4.495 -3.298,8.989 -3.298,14.122 0,5.133 1.064,9.654 3.298,14.095 2.553,5.106 6.861,9.76 11.807,12.765 10.292,6.276 23.51,6.01 33.616,-0.718 13.057,-8.67 17.711,-25.504 11.01,-39.652 -1.57,-3.271 -3.458,-5.93 -6.17,-8.67 -5.027,-5.026 -10.904,-7.951 -18.005,-8.962 -1.303,-0.159 -5.106,-0.319 -6.169,-0.213zm4.494 10.665c3.537,0.744 6.649,3.164 8.297,6.515 0.958,1.915 1.117,2.819 1.144,5.213 0,2.792 -0.106,3.244 -2.207,7.42 -2.208,4.441 -2.846,6.249 -3.458,9.573 -0.159,0.958 -0.372,2.075 -0.452,2.527l-0.159 0.798 -5.718 0 -5.718 0 -0.159 -0.798c-0.08,-0.452 -0.293,-1.569 -0.452,-2.527 -0.612,-3.35 -1.25,-5.132 -3.458,-9.573 -1.941,-3.91 -2.127,-4.522 -2.234,-6.942 -0.053,-1.356 0,-1.888 0.187,-2.845 0.824,-3.989 3.616,-7.287 7.393,-8.803 0.851,-0.319 2.207,-0.665 3.297,-0.798 0.772,-0.079 2.766,0.054 3.697,0.24zm-17.552 1.728c1.356,0.798 2.579,1.569 2.739,1.729 0.426,0.479 0.372,1.197 -0.16,1.729 -0.691,0.691 -0.957,0.638 -3.803,-1.011 -1.356,-0.771 -2.606,-1.569 -2.765,-1.755 -0.426,-0.452 -0.319,-1.277 0.212,-1.756 0.692,-0.638 1.011,-0.531 3.777,1.064zm33.828 -1.063c0.532,0.478 0.638,1.303 0.212,1.755 -0.159,0.186 -1.409,0.957 -2.765,1.755 -2.846,1.649 -3.112,1.702 -3.803,1.011 -0.506,-0.506 -0.585,-1.224 -0.133,-1.729 0.159,-0.16 1.383,-0.957 2.712,-1.729 2.793,-1.595 3.085,-1.702 3.777,-1.063zm-33.536 10.132c0.878,0.452 0.798,2.021 -0.079,2.393 -0.24,0.107 -1.25,0.133 -3.458,0.107l-3.111 -0.027 -0.293 -0.345c-0.212,-0.266 -0.292,-0.479 -0.292,-0.905 0,-0.665 0.159,-0.957 0.585,-1.196 0.479,-0.266 6.143,-0.293 6.648,-0.027zm36.089 0c0.478,0.239 0.611,0.532 0.611,1.223 0,0.399 -0.079,0.639 -0.292,0.905l-0.293 0.345 -3.111 0.027c-2.208,0.026 -3.218,0 -3.458,-0.107 -0.904,-0.372 -0.957,-1.914 -0.079,-2.393 0.478,-0.266 6.143,-0.239 6.622,0zm-33.802 7.978c0.32,0.319 0.426,0.505 0.426,0.904 0,0.293 -0.106,0.612 -0.239,0.798 -0.133,0.16 -1.383,0.958 -2.793,1.755 -2.925,1.676 -3.138,1.756 -3.829,0.984 -0.479,-0.505 -0.559,-1.223 -0.186,-1.648 0.106,-0.16 1.329,-0.931 2.739,-1.729 2.925,-1.702 3.191,-1.755 3.882,-1.064zm28.802 1.064c1.436,0.824 2.659,1.622 2.766,1.782 0.239,0.345 0.159,1.17 -0.16,1.542 -0.346,0.426 -0.957,0.612 -1.356,0.452 -0.718,-0.266 -5.106,-2.872 -5.319,-3.164 -0.133,-0.187 -0.239,-0.479 -0.239,-0.798 0,-0.399 0.079,-0.585 0.425,-0.904 0.692,-0.665 0.904,-0.612 3.883,1.09zm-11.063 13.244c0.319,0.319 0.319,1.17 0.026,1.489 -0.186,0.213 -0.505,0.213 -5.292,0.213 -5.771,0 -5.558,0.027 -5.558,-0.957 0,-0.373 0.08,-0.612 0.239,-0.772 0.24,-0.239 0.399,-0.239 5.293,-0.239 4.866,0.027 5.052,0.053 5.292,0.266zm0.026 2.925c0.16,0.133 0.213,0.373 0.213,0.798 0,1.011 0.186,0.957 -5.531,0.957 -5.718,0 -5.532,0.027 -5.532,-0.957 0,-1.064 -0.293,-1.011 5.505,-1.011 4.574,0 5.133,0.027 5.345,0.213zm-0.026 2.846c0.319,0.319 0.319,1.17 0.026,1.489 -0.186,0.213 -0.505,0.213 -5.292,0.213 -5.824,0 -5.558,0.053 -5.558,-0.984 0,-1.011 -0.186,-0.958 5.558,-0.958 4.84,0 5.026,0 5.266,0.24zm-1.729 3.058c-0.159,0.559 -0.479,0.958 -1.09,1.33 -0.825,0.505 -1.436,0.691 -2.473,0.691 -1.782,0 -3.218,-0.824 -3.564,-2.021l-0.106 -0.346 3.67 0 3.67 0 -0.107 0.346z"/>
     <path class="fil2" d="M29.52 13.145c-4.92,1.064 -8.218,5.585 -7.606,10.425 0.186,1.49 0.532,2.394 1.941,5.133 1.995,3.83 2.952,6.436 3.564,9.654 0.159,0.744 0.292,1.462 0.319,1.595 0.053,0.266 0.106,0.293 1.143,0.293l1.117 0 0 -3.777 0 -3.776 -2.127 -2.154c-1.33,-1.33 -2.181,-2.261 -2.234,-2.5 -0.213,-0.824 0.479,-1.675 1.303,-1.675 0.452,0 0.585,0.106 2.393,1.835 1.064,1.01 1.968,1.835 2.048,1.835 0.08,0 0.958,-0.825 1.995,-1.835 1.781,-1.756 1.888,-1.835 2.367,-1.835 0.851,0 1.542,0.851 1.329,1.675 -0.053,0.213 -0.904,1.144 -2.234,2.5l-2.127 2.154 0 3.776 0 3.777 1.117 0c1.037,0 1.117,0 1.143,-0.266 0.027,-0.16 0.186,-0.904 0.319,-1.622 0.586,-3.112 1.41,-5.346 3.538,-9.521 1.781,-3.537 2.021,-4.308 2.047,-6.329 0,-1.649 -0.239,-2.66 -0.957,-4.176 -1.17,-2.42 -3.191,-4.122 -5.904,-4.973 -1.117,-0.372 -3.351,-0.452 -4.494,-0.213z"/>
    </g>
   </g>
  </g>
 </g>
</svg>
