<?xml version="1.0" encoding="UTF-8"?>
<!DOCTYPE svg PUBLIC "-//W3C//DTD SVG 1.1//EN" "http://www.w3.org/Graphics/SVG/1.1/DTD/svg11.dtd">
<!-- Creator: CorelDRAW Standard 2021 (64-Bit) -->
<svg xmlns="http://www.w3.org/2000/svg" xml:space="preserve" width="64px" height="41px" version="1.1" style="shape-rendering:geometricPrecision; text-rendering:geometricPrecision; image-rendering:optimizeQuality; fill-rule:evenodd; clip-rule:evenodd"
viewBox="0 0 68.185 44.205"
 xmlns:xlink="http://www.w3.org/1999/xlink"
 xmlns:xodm="http://www.corel.com/coreldraw/odm/2003">
 <defs>
  <style type="text/css">
   <![CDATA[
    .fil3 {fill:#2F2E41;fill-rule:nonzero}
    .fil1 {fill:#3F3D56;fill-rule:nonzero}
    .fil5 {fill:#3F5AF3;fill-rule:nonzero}
    .fil2 {fill:#A0616A;fill-rule:nonzero}
    .fil0 {fill:#E6E6E6;fill-rule:nonzero}
    .fil4 {fill:#FBAF00;fill-rule:nonzero}
   ]]>
  </style>
 </defs>
 <g id="Layer_x0020_1">
  <metadata id="CorelCorpID_0Corel-Layer"/>
  <g id="_1181001898784">
   <path class="fil0" d="M62.192 44.074l-1.947 -5.877c0,0 2.142,2.142 2.142,3.9l-0.385 -4.065c0,0 1.099,1.483 0.989,3.735 -0.11,2.252 -0.799,2.307 -0.799,2.307z"/>
   <path class="fil0" d="M20.371 38.723l-1.901 -5.736c0,0 2.091,2.09 2.091,3.806l-0.375 -3.967c0,0 1.072,1.447 0.965,3.645 -0.108,2.198 -0.78,2.252 -0.78,2.252z"/>
   <path class="fil0" d="M50.036 41.369c0.004,3.773 -7.48,2.613 -16.641,2.621 -9.161,0.008 -16.532,1.181 -16.535,-2.592 -0.003,-3.773 7.478,-4.6 16.639,-4.608 9.161,-0.008 16.534,0.806 16.537,4.579z"/>
   <rect class="fil1" y="43.988" width="68.185" height="0.173"/>
   <polygon class="fil2" points="43.616,36.274 42.418,36.274 41.848,31.654 43.616,31.654 "/>
   <path class="fil3" d="M41.429 35.932l2.443 0 0 1.454 -3.764 0 0 -0.133c0,-0.73 0.592,-1.321 1.321,-1.321 0,0 0,0 0,0l0 0z"/>
   <polygon class="fil2" points="52.419,43.092 51.222,43.092 50.652,38.473 52.419,38.473 "/>
   <path class="fil3" d="M50.233 42.75l2.443 0 0 1.455 -3.764 0 0 -0.133c0,-0.73 0.592,-1.322 1.321,-1.322 0,0 0,0 0,0l0 0z"/>
   <path class="fil2" d="M57.944 29.368c0.132,-0.159 0.203,-0.36 0.203,-0.567 0,-0.321 -0.173,-0.618 -0.453,-0.775l-2.782 -11.332 -1.778 0.765 3.308 10.957c-0.057,0.121 -0.087,0.253 -0.087,0.387 0,0.494 0.4,0.895 0.895,0.895 0.269,0 0.524,-0.121 0.694,-0.33l0 0z"/>
   <path class="fil2" d="M55.774 6.466c-0.185,-0.194 -0.441,-0.304 -0.709,-0.304 -0.314,0 -0.609,0.15 -0.794,0.403l-4.305 0.495 0.655 1.66 3.915 -0.733c0.158,0.101 0.342,0.154 0.529,0.154 0.546,0 0.988,-0.442 0.988,-0.988 0,-0.256 -0.1,-0.503 -0.279,-0.687l0 0z"/>
   <path class="fil3" d="M48.679 28.193l1.879 14.101 2.338 -0.482c0,0 -0.344,-10.269 0.826,-11.507 1.169,-1.238 -1.504,-3.407 -1.504,-3.407l-3.539 1.295z"/>
   <path class="fil3" d="M49.456 24.309l-0.863 1.294c0,0 -6.646,-2.761 -6.646,1.64 0,4.402 -0.38,7.389 -0.518,7.596 -0.138,0.206 1.591,0.741 2.417,0.604 0,0 1.018,-7.097 0.949,-7.509 0,0 6.519,3.196 7.757,2.921 1.238,-0.275 1.531,-1.249 1.737,-1.799 0.207,-0.55 -0.086,-4.92 -0.086,-4.92l-4.127 -1.259 -0.62 1.432z"/>
   <path class="fil4" d="M49.572 16.536l-0.246 -0.296c0,0 -2.755,-6.199 -1.673,-7.872 1.083,-1.673 5.806,-1.919 5.954,-1.821 0.148,0.099 -0.353,1.377 -0.008,1.967 0,0 -3.659,0.793 -3.905,0.892 -0.246,0.098 1.896,3.735 1.896,3.735l-0.246 2.214 -1.772 1.181z"/>
   <path class="fil4" d="M54.394 13.485c0,0 -2.558,0.295 -2.657,0.295 -0.098,0 -0.147,-0.639 -0.147,-0.639l-2.264 3.099c0,0 -1.115,8.993 -0.82,8.846 0.296,-0.148 5.741,0.7 5.79,0.306 0.049,-0.394 -0.049,-2.362 0.098,-2.46 0.148,-0.098 2.559,-6.2 2.559,-6.2 0,0 -0.246,-1.279 -1.083,-1.722 -0.836,-0.442 -1.476,-1.525 -1.476,-1.525z"/>
   <path class="fil4" d="M56.165 15.896l0.788 0.836c0,0 1.169,9.612 0.53,9.907 -0.64,0.295 -1.899,0.259 -1.899,0.259l-1.239 -4.556 1.82 -6.446z"/>
   <circle class="fil2" cx="51.936" cy="10.612" r="2.265"/>
   <path class="fil3" d="M51.404 10.965c-0.03,-0.47 -0.623,-0.486 -1.094,-0.49 -0.471,-0.005 -1.034,0.012 -1.3,-0.376 -0.177,-0.257 -0.143,-0.613 0.003,-0.888 0.145,-0.275 0.384,-0.487 0.62,-0.691 0.607,-0.525 1.234,-1.046 1.963,-1.383 0.73,-0.336 1.585,-0.472 2.342,-0.202 0.929,0.332 2.186,2.039 2.295,3.02 0.108,0.981 -0.284,1.981 -0.945,2.714 -0.661,0.733 -2.173,0.437 -3.125,0.698 0.579,-0.819 0.197,-2.307 -0.73,-2.69l-0.029 0.288z"/>
   <circle class="fil5" cx="31.22" cy="34.822" r="5.437"/>
   <path class="fil5" d="M27.59 28.999c-0.001,0 -0.001,0 -0.001,0 -1.538,0 -2.934,-0.906 -3.56,-2.311l-8.627 -19.428c-0.292,-0.66 -0.444,-1.374 -0.444,-2.096 0,-2.852 2.312,-5.164 5.164,-5.164 2.267,0 4.27,1.48 4.935,3.647l6.247 20.318c0.114,0.37 0.172,0.756 0.172,1.144 0,2.147 -1.739,3.888 -3.886,3.89l0 0z"/>
  </g>
 </g>
</svg>
