<?xml version="1.0" encoding="UTF-8"?>
<!DOCTYPE svg PUBLIC "-//W3C//DTD SVG 1.1//EN" "http://www.w3.org/Graphics/SVG/1.1/DTD/svg11.dtd">
<!-- Creator: CorelDRAW Standard 2021 (64-Bit) -->
<svg xmlns="http://www.w3.org/2000/svg" xml:space="preserve" width="64px" height="65px" version="1.1" style="shape-rendering:geometricPrecision; text-rendering:geometricPrecision; image-rendering:optimizeQuality; fill-rule:evenodd; clip-rule:evenodd"
viewBox="0 0 70.381 72.035"
 xmlns:xlink="http://www.w3.org/1999/xlink"
 xmlns:xodm="http://www.corel.com/coreldraw/odm/2003">
 <defs>
  <style type="text/css">
   <![CDATA[
    .fil2 {fill:#2F2E41;fill-rule:nonzero}
    .fil4 {fill:#3F5AF3;fill-rule:nonzero}
    .fil1 {fill:#A0616A;fill-rule:nonzero}
    .fil0 {fill:#E6E6E6;fill-rule:nonzero}
    .fil3 {fill:#FBAF00;fill-rule:nonzero}
   ]]>
  </style>
 </defs>
 <g id="Layer_x0020_1">
  <metadata id="CorelCorpID_0Corel-Layer"/>
  <g id="_2839448214656">
   <path class="fil0" d="M8.822 63.101l-3.098 -9.346c0,0 3.407,3.406 3.407,6.202l-0.611 -6.464c0,0 1.747,2.358 1.572,5.94 -0.175,3.581 -1.27,3.668 -1.27,3.668z"/>
   <path class="fil0" d="M57.163 67.414c0.006,6.149 -12.189,4.258 -27.118,4.271 -14.929,0.012 -26.939,1.925 -26.945,-4.224 -0.005,-6.148 12.185,-7.496 27.114,-7.509 14.929,-0.013 26.944,1.314 26.949,7.462z"/>
   <polygon class="fil1" points="46.701,59.111 44.749,59.111 43.82,51.583 46.701,51.583 "/>
   <path class="fil2" d="M43.138 58.553l3.981 0 0 2.37 -6.134 0 0 -0.216c0,-1.189 0.964,-2.154 2.153,-2.154 0,0 0,0 0,0l0 0z"/>
   <polygon class="fil1" points="61.047,70.222 59.095,70.222 58.166,62.694 61.047,62.694 "/>
   <path class="fil2" d="M57.484 69.665l3.981 0 0 2.37 -6.134 0 0 -0.217c0,-1.189 0.964,-2.153 2.153,-2.153 0,0 0,0 0,0l0 0z"/>
   <path class="fil1" d="M70.05 47.857c0.214,-0.26 0.331,-0.586 0.331,-0.923 0,-0.524 -0.282,-1.007 -0.739,-1.264l-4.533 -18.466 -2.898 1.247 5.392 17.855c-0.095,0.197 -0.144,0.412 -0.144,0.63 0,0.806 0.654,1.459 1.459,1.459 0.439,0 0.855,-0.198 1.132,-0.538l0 0z"/>
   <path class="fil1" d="M66.514 10.537c-0.302,-0.316 -0.72,-0.495 -1.157,-0.495 -0.511,0 -0.991,0.244 -1.292,0.657l-7.017 0.805 1.068 2.706 6.381 -1.194c0.257,0.163 0.556,0.25 0.861,0.25 0.889,0 1.61,-0.721 1.61,-1.609 0,-0.418 -0.163,-0.82 -0.454,-1.12l0 0z"/>
   <path class="fil2" d="M54.952 45.942l3.061 22.979 3.811 -0.785c0,0 -0.56,-16.734 1.345,-18.752 1.905,-2.017 -2.451,-5.552 -2.451,-5.552l-5.766 2.11z"/>
   <path class="fil2" d="M56.217 39.613l-1.406 2.11c0,0 -10.83,-4.501 -10.83,2.672 0,7.173 -0.62,12.041 -0.844,12.377 -0.224,0.336 2.593,1.209 3.938,0.985 0,0 1.659,-11.564 1.547,-12.237 0,0 10.624,5.209 12.642,4.761 2.017,-0.449 2.494,-2.036 2.83,-2.932 0.336,-0.897 -0.141,-8.017 -0.141,-8.017l-6.724 -2.053 -1.012 2.334z"/>
   <path class="fil3" d="M56.407 26.946l-0.401 -0.481c0,0 -4.49,-10.103 -2.726,-12.829 1.764,-2.726 9.461,-3.127 9.702,-2.966 0.24,0.16 -0.575,2.242 -0.013,3.204 0,0 -5.963,1.293 -6.364,1.453 -0.401,0.161 3.09,6.087 3.09,6.087l-0.401 3.608 -2.887 1.924z"/>
   <path class="fil3" d="M64.265 21.975c0,0 -4.17,0.481 -4.33,0.481 -0.16,0 -0.24,-1.042 -0.24,-1.042l-3.689 5.051c0,0 -1.817,14.654 -1.336,14.414 0.481,-0.241 9.354,1.141 9.434,0.499 0.081,-0.641 -0.08,-3.848 0.161,-4.009 0.24,-0.16 4.169,-10.102 4.169,-10.102 0,0 -0.401,-2.085 -1.764,-2.807 -1.363,-0.721 -2.405,-2.485 -2.405,-2.485z"/>
   <path class="fil3" d="M67.151 25.904l1.283 1.363c0,0 1.906,15.662 0.864,16.144 -1.042,0.481 -3.094,0.421 -3.094,0.421l-2.019 -7.425 2.966 -10.503z"/>
   <circle class="fil1" cx="60.258" cy="17.293" r="3.69"/>
   <path class="fil2" d="M59.392 17.868c-0.05,-0.765 -1.016,-0.792 -1.783,-0.799 -0.767,-0.007 -1.685,0.02 -2.119,-0.612 -0.287,-0.419 -0.232,-0.999 0.005,-1.447 0.237,-0.449 0.627,-0.794 1.011,-1.125 0.99,-0.857 2.011,-1.706 3.2,-2.254 1.189,-0.549 2.582,-0.77 3.815,-0.33 1.515,0.54 3.563,3.323 3.74,4.921 0.176,1.599 -0.462,3.229 -1.539,4.423 -1.077,1.195 -3.542,0.713 -5.093,1.138 0.943,-1.335 0.321,-3.76 -1.19,-4.383l-0.047 0.468z"/>
   <circle class="fil4" cx="26.501" cy="56.746" r="8.859"/>
   <path class="fil4" d="M20.585 47.257c-0.001,0 -0.001,0 -0.001,0 -2.507,0 -4.782,-1.477 -5.801,-3.767l-14.059 -31.66c-0.476,-1.075 -0.724,-2.239 -0.724,-3.415 0,-4.647 3.768,-8.415 8.415,-8.415 3.694,0 6.958,2.411 8.043,5.942l10.18 33.111c0.185,0.602 0.281,1.232 0.281,1.863 0,3.499 -2.835,6.338 -6.334,6.341l0 0z"/>
  </g>
 </g>
</svg>
