<?xml version="1.0" encoding="UTF-8"?>
<!DOCTYPE svg PUBLIC "-//W3C//DTD SVG 1.1//EN" "http://www.w3.org/Graphics/SVG/1.1/DTD/svg11.dtd">
<!-- Creator: CorelDRAW Standard 2021 (64-Bit) -->
<svg xmlns="http://www.w3.org/2000/svg" xml:space="preserve" width="64px" height="117px" version="1.1" style="shape-rendering:geometricPrecision; text-rendering:geometricPrecision; image-rendering:optimizeQuality; fill-rule:evenodd; clip-rule:evenodd"
viewBox="0 0 41.997 76.821"
 xmlns:xlink="http://www.w3.org/1999/xlink"
 xmlns:xodm="http://www.corel.com/coreldraw/odm/2003">
 <defs>
  <style type="text/css">
   <![CDATA[
    .fil6 {fill:#3F3D56;fill-rule:nonzero}
    .fil4 {fill:#4459EA;fill-rule:nonzero}
    .fil5 {fill:gray;fill-rule:nonzero}
    .fil0 {fill:#B3B3B3;fill-rule:nonzero}
    .fil2 {fill:#E6E6E6;fill-rule:nonzero}
    .fil3 {fill:#FBAF00;fill-rule:nonzero}
    .fil1 {fill:white;fill-rule:nonzero}
   ]]>
  </style>
 </defs>
 <g id="Layer_x0020_1">
  <metadata id="CorelCorpID_0Corel-Layer"/>
  <g id="_1180036265888">
   <path class="fil0" d="M41.997 17.219l-0.398 0 0 -10.907c0,0 0,0 0,0 0,-3.485 -2.827,-6.312 -6.312,-6.312 0,0 0,0 0,0l-23.107 0c0,0 0,0 0,0 -3.486,0 -6.313,2.827 -6.313,6.312 0,0 0,0 0,0l0 59.834c0,0 0,0 0,0 0,3.486 2.827,6.312 6.313,6.312 0,0 0,0 0,0l23.107 0c0,0 0,0 0,0 3.485,0 6.312,-2.826 6.312,-6.312 0,0 0,0 0,0l0 -41.164 0.398 0 0 -7.763z"/>
   <path class="fil1" d="M35.541 1.642l-3.016 0c0.109,0.268 0.166,0.556 0.166,0.846 0,1.237 -1.003,2.24 -2.239,2.24l-13.238 0c-1.237,0 -2.239,-1.003 -2.239,-2.24 0,-0.29 0.056,-0.578 0.165,-0.846l-2.817 0c0,0 0,0 0,0 -2.603,0 -4.714,2.111 -4.714,4.714l0 59.746c0,2.603 2.111,4.714 4.714,4.714 0,0 0,0 0,0l23.218 0c0,0 0,0 0,0 2.603,0 4.714,-2.111 4.714,-4.714l0 -59.746c0,-2.603 -2.111,-4.714 -4.714,-4.714 0,0 0,0 0,0l0 0z"/>
   <path class="fil1" d="M17.956 21.002l-2.882 0c0,0 0,0 0,0 -0.164,0 -0.296,0.132 -0.296,0.296 0,0.015 0.001,0.03 0.003,0.045l0.436 2.831 2.501 0 0.529 -2.822c0.003,-0.018 0.005,-0.036 0.005,-0.054 0,-0.164 -0.132,-0.296 -0.296,-0.296 0,0 0,0 0,0l0 0z"/>
   <path class="fil1" d="M33.388 35.836l-2.882 0c0,0 0,0 0,0 -0.164,0 -0.296,0.133 -0.296,0.296 0,0.015 0.001,0.03 0.003,0.045l0.436 2.832 2.501 0 0.529 -2.822c0.003,-0.018 0.005,-0.036 0.005,-0.055 0,-0.163 -0.133,-0.296 -0.296,-0.296l0 0z"/>
   <path class="fil2" d="M15.143 49.594l-0.658 0c-0.048,0 -0.087,0.039 -0.087,0.087l0 0.289c0,0.048 0.039,0.087 0.087,0.087l0.109 0 0 0.433 0.44 0 0 -0.433 0.109 0c0.048,0 0.087,-0.039 0.087,-0.087l0 -0.289c0,-0.048 -0.039,-0.087 -0.087,-0.087l0 0z"/>
   <path class="fil2" d="M15.801 52.236c-0.383,-0.562 -0.589,-1.227 -0.589,-1.908 0,-0.032 0,-0.065 0.001,-0.097 0,0 0,-0.001 0,-0.001 0,-0.033 -0.023,-0.062 -0.055,-0.07l0 -0.124 -0.695 0 0 0.123 -0.009 0c-0.04,0 -0.071,0.032 -0.071,0.071 0,0 0,0 0,0 -0.001,0.002 0,0.003 0,0.005 0.007,0.09 0.012,0.181 0.012,0.271 0,0.637 -0.199,1.26 -0.567,1.781 -0.023,0.033 -0.035,0.072 -0.035,0.113 0,0.002 0,0.004 0,0.006l0.076 2.349c0.004,0.109 0.092,0.195 0.201,0.196l1.571 0c0.111,-0.001 0.2,-0.089 0.202,-0.199l0.029 -2.281c0,-0.002 0,-0.003 0,-0.004 0,-0.083 -0.024,-0.163 -0.07,-0.231l-0.001 0z"/>
   <rect class="fil1" x="14.077" y="53.099" width="1.499" height="0.749"/>
   <path class="fil3" d="M18.204 49.594l-0.658 0c-0.048,0 -0.087,0.039 -0.087,0.087l0 0.289c0,0.048 0.039,0.087 0.087,0.087l0.109 0 0 0.433 0.44 0 0 -0.433 0.109 0c0.048,0 0.087,-0.039 0.087,-0.087l0 -0.289c0,-0.048 -0.039,-0.087 -0.087,-0.087l0 0z"/>
   <path class="fil4" d="M18.862 52.236c-0.383,-0.562 -0.589,-1.227 -0.589,-1.908 0,-0.032 0,-0.065 0.001,-0.097 0,0 0,-0.001 0,-0.001 0,-0.033 -0.023,-0.062 -0.055,-0.07l0 -0.124 -0.695 0 0 0.123 -0.009 0c-0.04,0 -0.071,0.032 -0.071,0.071 0,0 0,0 0,0 0,0.002 0,0.003 0,0.005 0.007,0.09 0.012,0.181 0.012,0.271 0,0.637 -0.198,1.26 -0.567,1.781 -0.023,0.033 -0.035,0.072 -0.035,0.113 0,0.002 0,0.004 0,0.006l0.076 2.349c0.004,0.109 0.093,0.195 0.201,0.196l1.571 0c0.111,-0.001 0.2,-0.089 0.202,-0.199l0.029 -2.281c0,-0.002 0,-0.003 0,-0.004 0,-0.083 -0.024,-0.163 -0.07,-0.231l-0.001 0z"/>
   <rect class="fil1" x="17.138" y="53.099" width="1.499" height="0.749"/>
   <path class="fil3" d="M21.265 49.594l-0.658 0c-0.048,0 -0.087,0.039 -0.087,0.087l0 0.289c0,0.048 0.039,0.087 0.087,0.087l0.109 0 0 0.433 0.44 0 0 -0.433 0.109 0c0.048,0 0.087,-0.039 0.087,-0.087l0 -0.289c0,-0.048 -0.039,-0.087 -0.087,-0.087l0 0z"/>
   <path class="fil4" d="M21.924 52.236c-0.384,-0.562 -0.59,-1.227 -0.59,-1.908 0,-0.032 0,-0.065 0.001,-0.097 0,0 0,-0.001 0,-0.001 0,-0.033 -0.023,-0.062 -0.055,-0.07l0 -0.124 -0.695 0 0 0.123 -0.009 0c-0.04,0 -0.071,0.032 -0.071,0.071 0,0 0,0 0,0 0,0.002 0,0.003 0,0.005 0.007,0.09 0.012,0.181 0.012,0.271 0,0.637 -0.198,1.26 -0.567,1.781 -0.023,0.033 -0.035,0.072 -0.035,0.113 0,0.002 0,0.004 0,0.006l0.076 2.349c0.004,0.109 0.093,0.195 0.202,0.196l1.57 0c0.111,-0.001 0.2,-0.089 0.202,-0.199l0.029 -2.281c0,-0.002 0,-0.003 0,-0.004 0,-0.083 -0.024,-0.163 -0.07,-0.231l0 0z"/>
   <rect class="fil1" x="20.199" y="53.099" width="1.499" height="0.749"/>
   <path class="fil1" d="M30.98 51.069l-2.883 0c0,0 0,0 0,0 -0.163,0 -0.296,0.133 -0.296,0.296 0,0.015 0.002,0.03 0.004,0.045l0.435 2.831 2.502 0 0.529 -2.821c0.003,-0.018 0.005,-0.037 0.005,-0.055 0,-0.163 -0.133,-0.296 -0.296,-0.296l0 0z"/>
   <path class="fil2" d="M30.872 25.719l-8.263 0c0.577,-3.124 0.445,-6.896 0,-10.952l8.263 0c-0.433,4.056 -0.562,7.828 0,10.952z"/>
   <circle class="fil1" cx="26.79" cy="19.944" r="1.991"/>
   <path class="fil3" d="M23.306 40.255l-8.264 0c0.578,-3.124 0.445,-6.896 0,-10.952l8.264 0c-0.433,4.056 -0.563,7.828 0,10.952z"/>
   <circle class="fil1" cx="19.224" cy="34.48" r="1.991"/>
   <path class="fil3" d="M35.552 26.416l-8.264 0c0.578,-3.124 0.445,-6.896 0,-10.952l8.264 0c-0.433,4.056 -0.563,7.828 0,10.952z"/>
   <circle class="fil1" cx="31.47" cy="20.641" r="1.991"/>
   <circle class="fil1" cx="31.47" cy="20.143" r="1.991"/>
   <circle class="fil1" cx="31.47" cy="20.641" r="1.991"/>
   <rect class="fil2" x="10.363" y="25.121" width="27.081" height="2.987"/>
   <rect class="fil2" x="10.363" y="39.956" width="27.081" height="2.987"/>
   <rect class="fil2" x="10.363" y="54.791" width="27.081" height="2.987"/>
   <path class="fil3" d="M32.519 71.304l-6.747 -4.772c2.275,-2.216 4.345,-5.373 6.324,-8.941l6.747 4.772c-2.696,3.061 -4.98,6.066 -6.324,8.941z"/>
   <circle class="fil1" cx="32.52" cy="64.232" r="1.991"/>
   <path class="fil1" d="M24.274 67.078l-2.883 0c0,-0.001 0,-0.001 0,-0.001 -0.163,0 -0.296,0.133 -0.296,0.296 0,0.015 0.001,0.031 0.004,0.045l0.435 2.832 2.501 0 0.53 -2.822c0.003,-0.018 0.005,-0.036 0.005,-0.055 0,-0.163 -0.133,-0.295 -0.296,-0.295l0 0z"/>
   <path class="fil3" d="M19.454 71.296l-8.264 0c0.578,-3.124 0.445,-6.895 0,-10.952l8.264 0c-0.433,4.057 -0.562,7.829 0,10.952z"/>
   <circle class="fil1" cx="15.372" cy="65.522" r="1.991"/>
   <polygon class="fil5" points="36.557,72.019 10.304,72.019 4.744,45.739 0,45.739 0,44.56 5.7,44.56 11.26,70.84 36.557,70.84 "/>
   <circle class="fil5" cx="14.151" cy="74.294" r="2.527"/>
   <circle class="fil5" cx="33.019" cy="74.294" r="2.527"/>
   <path class="fil5" d="M36.078 71.464l-25.543 0 -4.506 -22.272 34.279 0c0.668,0 1.211,0.543 1.211,1.211 0,0.063 -0.006,0.126 -0.015,0.188l-4.23 19.85c-0.089,0.588 -0.596,1.023 -1.191,1.023 -0.001,0 -0.003,0 -0.005,0l0 0zm-24.069 -1.36l24.069 0c0.001,0 0.003,0 0.004,0 0.429,0 0.795,-0.314 0.859,-0.738l4.23 -19.85c0.007,-0.045 0.011,-0.09 0.011,-0.136 0,-0.482 -0.392,-0.874 -0.874,-0.874 0,0 0,0 0,0l-33.87 0 5.571 21.598z"/>
   <polygon class="fil5" points="15.501,71.393 12.55,49.388 12.882,49.333 15.833,71.338 "/>
   <polygon class="fil5" points="31.912,71.224 31.579,71.17 34.445,49.334 34.777,49.388 "/>
   <rect class="fil5" x="23.756" y="49.361" width="0.337" height="22.004"/>
   <rect class="fil5" transform="matrix(0.00242129 -0.999997 0.999997 0.00242129 7.74903 55.594)" width="0.337" height="32.614"/>
   <rect class="fil5" transform="matrix(0.999976 -0.0068357 0.0068357 0.999976 9.41026 65.8611)" width="28.653" height="0.337"/>
   <ellipse class="fil6" cx="37" cy="40.278" rx="1.853" ry="1.011"/>
   <path class="fil3" d="M15.143 49.594l-0.658 0c-0.048,0 -0.087,0.039 -0.087,0.087l0 0.289c0,0.048 0.039,0.087 0.087,0.087l0.109 0 0 0.433 0.44 0 0 -0.433 0.109 0c0.048,0 0.087,-0.039 0.087,-0.087l0 -0.289c0,-0.048 -0.039,-0.087 -0.087,-0.087l0 0z"/>
   <path class="fil4" d="M15.801 52.236c-0.383,-0.562 -0.589,-1.227 -0.589,-1.908 0,-0.032 0,-0.065 0.001,-0.097 0,0 0,-0.001 0,-0.001 0,-0.033 -0.023,-0.062 -0.055,-0.07l0 -0.124 -0.695 0 0 0.123 -0.009 0c-0.04,0 -0.071,0.032 -0.071,0.071 0,0 0,0 0,0 -0.001,0.002 0,0.003 0,0.005 0.007,0.09 0.012,0.181 0.012,0.271 0,0.637 -0.199,1.26 -0.567,1.781 -0.023,0.033 -0.035,0.072 -0.035,0.113 0,0.002 0,0.004 0,0.006l0.076 2.349c0.004,0.109 0.092,0.195 0.201,0.196l1.571 0c0.111,-0.001 0.2,-0.089 0.202,-0.199l0.029 -2.281c0,-0.002 0,-0.003 0,-0.004 0,-0.083 -0.024,-0.163 -0.07,-0.231l-0.001 0z"/>
   <rect class="fil1" x="14.077" y="53.099" width="1.499" height="0.749"/>
   <path class="fil3" d="M30.412 43.931l-1.336 0c-0.097,0 -0.177,0.079 -0.177,0.177l0 0.586c0,0.098 0.08,0.177 0.177,0.177l0.222 0 0 0.878 0.892 0 0 -0.878 0.222 0c0.098,0 0.177,-0.079 0.177,-0.177l0 -0.586c0,-0.098 -0.079,-0.177 -0.177,-0.177l0 0z"/>
   <path class="fil4" d="M31.75 49.296c-0.78,-1.141 -1.198,-2.492 -1.198,-3.875 0,-0.065 0.001,-0.132 0.003,-0.197 0,0 0,-0.001 0,-0.003 0,-0.067 -0.047,-0.126 -0.113,-0.141l0 -0.253 -1.411 0 0 0.25 -0.019 0c-0.08,0 -0.144,0.065 -0.144,0.144 0,0 0,0.001 0,0.001 -0.001,0.003 0,0.007 0,0.01 0.015,0.182 0.024,0.367 0.024,0.55 0,1.295 -0.402,2.56 -1.15,3.617 -0.047,0.068 -0.072,0.148 -0.072,0.23 0,0.004 0,0.008 0,0.012l0.154 4.771c0.008,0.221 0.188,0.397 0.41,0.399l3.19 0c0.224,-0.002 0.406,-0.182 0.41,-0.406l0.059 -4.632c0,-0.003 0,-0.006 0,-0.009 0,-0.167 -0.05,-0.33 -0.143,-0.468l0 0z"/>
   <rect class="fil1" x="28.246" y="51.049" width="3.044" height="1.522"/>
   <path class="fil3" d="M32.252 29.043l-1.336 0c-0.097,0 -0.177,0.079 -0.177,0.177l0 0.586c0,0.098 0.08,0.177 0.177,0.177l0.222 0 0 0.879 0.893 0 0 -0.879 0.221 0c0.098,0 0.177,-0.079 0.177,-0.177l0 -0.586c0,-0.098 -0.079,-0.177 -0.177,-0.177l0 0z"/>
   <path class="fil4" d="M33.59 34.408c-0.78,-1.14 -1.198,-2.492 -1.198,-3.874 0,-0.066 0.001,-0.132 0.003,-0.197 0,-0.001 0,-0.002 0,-0.003 0,-0.068 -0.047,-0.127 -0.113,-0.141l0 -0.254 -1.411 0 0 0.25 -0.019 0c-0.08,0 -0.144,0.065 -0.144,0.145 0,0 0,0 0,0 0,0.004 0,0.007 0,0.011 0.015,0.182 0.024,0.366 0.024,0.549 0,1.295 -0.402,2.561 -1.15,3.618 -0.047,0.067 -0.072,0.147 -0.072,0.229 0,0.004 0,0.008 0,0.013l0.154 4.771c0.008,0.221 0.189,0.396 0.41,0.398l3.19 0c0.224,-0.002 0.406,-0.182 0.41,-0.406l0.059 -4.632c0,-0.002 0,-0.005 0,-0.008 0,-0.167 -0.05,-0.331 -0.143,-0.469l0 0z"/>
   <rect class="fil1" x="30.086" y="36.162" width="3.044" height="1.522"/>
   <path class="fil3" d="M16.509 14.268l-1.335 0c-0.098,-0.001 -0.177,0.079 -0.177,0.176l0 0.587c0,0.097 0.079,0.177 0.177,0.177l0.221 0 0 0.878 0.893 0 0 -0.878 0.221 0c0.098,0 0.177,-0.08 0.177,-0.177l0 -0.587c0,-0.097 -0.079,-0.177 -0.177,-0.177l0 0.001z"/>
   <path class="fil4" d="M17.847 19.632c-0.78,-1.14 -1.197,-2.491 -1.197,-3.874 0,-0.065 0,-0.132 0.002,-0.197 0.001,-0.001 0.001,-0.002 0.001,-0.003 0,-0.067 -0.047,-0.126 -0.114,-0.141l0 -0.253 -1.41 0 0 0.25 -0.02 0c-0.079,0 -0.144,0.064 -0.144,0.144 0,0 0,0 0,0 0,0.004 0,0.007 0,0.011 0.015,0.182 0.024,0.367 0.024,0.549 0,1.296 -0.402,2.561 -1.149,3.618 -0.047,0.067 -0.073,0.147 -0.073,0.229 0,0.005 0,0.009 0,0.013l0.155 4.771c0.007,0.221 0.188,0.397 0.409,0.399l3.19 0c0.224,-0.002 0.406,-0.182 0.41,-0.406l0.06 -4.632c0,-0.003 0,-0.006 0,-0.009 0,-0.167 -0.05,-0.33 -0.144,-0.469l0 0z"/>
   <rect class="fil1" x="14.344" y="21.386" width="3.044" height="1.522"/>
  </g>
 </g>
</svg>
