<?xml version="1.0" encoding="UTF-8"?>
<!DOCTYPE svg PUBLIC "-//W3C//DTD SVG 1.1//EN" "http://www.w3.org/Graphics/SVG/1.1/DTD/svg11.dtd">
<!-- Creator: CorelDRAW Standard 2021 (64-Bit) -->
<svg xmlns="http://www.w3.org/2000/svg" xml:space="preserve" width="1143px" height="1194px" version="1.1" style="shape-rendering:geometricPrecision; text-rendering:geometricPrecision; image-rendering:optimizeQuality; fill-rule:evenodd; clip-rule:evenodd"
viewBox="0 0 1278.964 1336.069"
 xmlns:xlink="http://www.w3.org/1999/xlink"
 xmlns:xodm="http://www.corel.com/coreldraw/odm/2003">
 <defs>
  <style type="text/css">
   <![CDATA[
    .str0 {stroke:black;stroke-width:1.322;stroke-miterlimit:22.9256}
    .fil0 {fill:#FBAF00}
    .fil1 {fill:#4459EA;fill-rule:nonzero}
   ]]>
  </style>
 </defs>
 <g id="Layer_x0020_1">
  <metadata id="CorelCorpID_0Corel-Layer"/>
  <rect class="fil0 str0" x="151.819" y="401.433" width="985.238" height="546.434"/>
  <g id="_2583417106752">
   <g>
    <g>
     <g>
      <path class="fil1" d="M611.839 4.767c-25.481,7.59 -35.241,16.807 -88.916,83.495 -28.192,34.699 -52.048,62.891 -53.675,61.807 -1.626,-0.542 -36.867,-9.759 -78.614,-21.144 -68.856,-18.434 -77.531,-20.061 -94.338,-18.976 -43.374,2.711 -79.157,35.241 -86.747,79.157 -1.085,8.133 -3.795,46.627 -5.964,85.121 -2.168,38.494 -3.795,71.024 -4.88,72.109 -1.084,1.085 -33.072,14.638 -71.024,28.735 -81.868,31.446 -86.205,33.615 -100.844,48.796 -16.807,16.807 -24.939,36.325 -26.566,62.35 -1.627,29.277 2.711,39.036 51.506,114.94 22.772,35.24 41.748,65.602 41.748,66.686 0,1.626 -17.892,29.819 -39.579,63.434 -54.76,84.036 -53.133,80.784 -53.133,112.772 0,28.735 4.338,41.747 19.518,61.265 13.012,16.265 27.651,23.856 104.097,53.675 60.723,23.313 73.736,29.277 74.819,33.614 0.542,3.254 2.169,35.784 3.796,72.11 1.626,36.325 4.337,73.735 5.421,81.867 5.422,31.446 24.94,56.928 53.675,71.025 13.555,7.048 18.434,7.59 39.037,7.59 21.144,0 30.904,-2.169 92.711,-18.976 37.952,-10.301 71.024,-19.518 73.193,-20.061 2.711,-1.084 20.061,17.892 54.759,61.265 54.217,67.23 65.061,76.989 91.086,84.579 17.89,5.422 34.698,5.422 52.589,0 26.025,-7.59 36.868,-17.349 91.086,-84.579 28.192,-34.699 52.048,-62.349 53.675,-61.807 1.626,0.542 36.867,9.759 78.614,21.144 68.314,18.434 77.531,20.061 93.796,18.976 43.374,-2.711 79.157,-34.699 86.747,-78.072 1.627,-7.591 4.338,-45.001 5.964,-82.411 1.626,-37.41 3.253,-70.482 3.795,-73.193 1.084,-4.88 13.554,-10.301 71.024,-32.53 38.494,-14.639 74.278,-28.736 79.7,-31.988 14.638,-7.59 32.53,-26.566 40.662,-43.374 6.506,-13.012 7.048,-18.434 7.048,-41.205 0,-31.988 1.085,-28.735 -53.133,-112.772 -21.687,-33.614 -39.578,-61.808 -39.578,-63.434 0,-1.627 18.434,-30.904 41.205,-65.602 49.337,-75.904 54.217,-86.206 52.59,-115.483 -1.084,-26.024 -9.759,-46.085 -26.566,-62.892 -15.181,-15.181 -17.349,-16.265 -100.844,-48.253l-70.482 -26.023 -4.337 -79.699c-2.169,-43.916 -5.422,-83.495 -6.506,-87.29 -10.302,-39.036 -45.001,-67.771 -86.206,-71.024 -17.349,-1.085 -24.398,0 -94.338,18.976 -41.747,11.386 -76.988,20.602 -78.614,21.144 -1.627,0.542 -26.024,-27.65 -54.217,-62.349 -35.784,-43.916 -55.302,-66.145 -63.976,-72.109 -23.314,-16.265 -53.134,-20.603 -80.784,-11.386zm-284.097 529.159c15.181,54.217 34.157,135.542 37.952,162.108l4.88 33.615 8.133 -35.241c4.337,-19.518 17.349,-65.061 28.735,-102.47l20.061 -67.229 29.276 0c16.264,0 29.277,0.542 29.277,1.085 0,1.084 -78.615,260.241 -84.036,278.133l-2.712 8.675 -34.157 -0.542 -34.157 -0.542 -16.264 -65.061c-9.217,-35.784 -19.518,-82.411 -23.313,-103.012 -3.796,-20.602 -7.049,-39.036 -7.591,-40.12 0,-1.085 -3.253,8.132 -6.506,21.143 -3.253,13.013 -17.349,60.182 -30.362,105.182 -13.554,45 -24.397,82.41 -24.397,82.952 0,0.542 -13.555,1.085 -30.362,1.085 -27.651,0 -29.82,-0.542 -28.736,-4.88 7.59,-24.939 85.121,-280.302 85.121,-281.386 0,-0.542 17.35,-0.542 38.494,-0.542l38.494 0.542 2.17 6.505zm384.941 16.807l-7.59 26.025 -56.386 0.542 -56.386 0.542 -7.048 22.771c-3.795,12.47 -7.59,25.481 -8.675,29.276l-1.626 6.507 52.048 0 52.048 0 -1.626 6.507c-0.542,3.253 -4.338,14.638 -7.049,25.482l-5.963 19.518 -53.133 1.084 -53.133 1.085 -8.674 27.651c-4.88,15.181 -9.217,30.362 -9.76,34.699l-1.626 7.048 59.097 -0.001 58.554 0 -7.59 26.024 -8.133 26.024 -91.626 0.001c-49.88,0 -91.085,-1.085 -91.085,-2.169 0,-1.626 81.325,-272.169 85.12,-281.929 0.542,-2.168 21.145,-3.253 90,-3.253l88.374 0 -8.132 26.566zm106.808 -8.674c-2.712,28.192 -21.688,180.542 -23.856,190.843 -1.085,5.422 22.771,-39.036 53.133,-98.675l54.76 -108.434 34.698 -0.542 34.158 -0.542 0 6.506c0,9.76 -15.181,141.507 -20.603,175.663 -2.711,17.35 -4.88,31.446 -4.338,31.988 0,0 11.928,-23.856 26.024,-53.675 14.097,-29.819 37.953,-78.072 53.133,-107.349l27.109 -52.591 32.53 0.001 32.531 0 -9.76 17.891c-5.421,9.76 -41.747,74.277 -80.241,143.675l-70.483 125.784 -34.699 0 -34.698 0 0 -7.59c0,-11.928 15.18,-148.013 19.518,-174.037 2.168,-13.013 3.795,-24.939 3.795,-26.024 0,-1.626 -7.049,11.927 -15.723,29.277 -8.675,17.891 -32.531,65.061 -53.675,105.181l-37.952 72.651 -35.241 0 -35.241 0 0 -8.675c0,-11.386 15.181,-247.772 17.349,-265.121l1.085 -13.555 34.156 0 34.157 0 -1.626 17.35z"/>
     </g>
    </g>
   </g>
  </g>
 </g>
</svg>
