<?xml version="1.0" encoding="UTF-8"?>
<!DOCTYPE svg PUBLIC "-//W3C//DTD SVG 1.1//EN" "http://www.w3.org/Graphics/SVG/1.1/DTD/svg11.dtd">
<!-- Creator: CorelDRAW Standard 2021 (64-Bit) -->
<svg xmlns="http://www.w3.org/2000/svg" xml:space="preserve" width="64px" height="68px" version="1.1" style="shape-rendering:geometricPrecision; text-rendering:geometricPrecision; image-rendering:optimizeQuality; fill-rule:evenodd; clip-rule:evenodd"
viewBox="0 0 120.057 127.559"
 xmlns:xlink="http://www.w3.org/1999/xlink"
 xmlns:xodm="http://www.corel.com/coreldraw/odm/2003">
 <defs>
  <style type="text/css">
   <![CDATA[
    .fil2 {fill:#3F3D56;fill-rule:nonzero}
    .fil0 {fill:#3F5AF3;fill-rule:nonzero}
    .fil4 {fill:#CCCCCC;fill-rule:nonzero}
    .fil3 {fill:#E6E6E6;fill-rule:nonzero}
    .fil5 {fill:#FBAF00;fill-rule:nonzero}
    .fil1 {fill:#FBAF00;fill-rule:nonzero}
    .fil6 {fill:#FBAF00;fill-rule:nonzero;fill-opacity:0.301961}
   ]]>
  </style>
 </defs>
 <g id="Layer_x0020_1">
  <metadata id="CorelCorpID_0Corel-Layer"/>
  <path id="blob_x0020__x0028_1_x0029_.svg" class="fil0" d="M114.878 31.488c9.38,17.993 5.239,40.725 -6.169,60.245 -11.323,19.439 -29.999,35.745 -48.674,35.825 -18.76,0.081 -37.689,-16.065 -49.013,-35.584 -11.323,-19.439 -15.126,-42.252 -5.661,-60.325 9.464,-18.154 32.111,-31.569 54.758,-31.649 22.732,0 45.464,13.415 54.759,31.488z"/>
  <g id="_2582163752256">
   <g>
    <path class="fil1" d="M48.594 90.603l-0.029 3.128c-0.873,-0.58 -2.117,-0.176 -2.609,0.848 -0.491,1.024 -0.142,2.482 0.732,3.06 -0.546,0.719 -1.485,0.718 -2.307,0.734 -0.823,0.016 -1.795,0.221 -2.135,1.099 -0.274,0.705 0.017,1.57 0.508,2.089 0.492,0.519 1.141,0.77 1.77,1.008 -1.367,0.545 -2.288,2.322 -2.072,3.998 0.216,1.675 1.544,3.059 2.988,3.112 -1.346,0.675 -2.053,2.715 -1.491,4.303 0.566,1.601 2.073,2.42 3.486,2.924 3.596,1.292 7.498,1.489 11.206,0.576 1.417,-0.351 2.832,-0.879 4.005,-1.875 1.172,-0.997 2.08,-2.521 2.187,-4.216 -0.677,1.875 0.48,4.128 2.07,4.952 1.591,0.823 3.43,0.556 5.114,0.062 2.241,-0.656 4.617,-1.924 5.496,-4.429 0.434,-1.239 0.438,-2.621 0.434,-3.963l-0.006 -2.6c-0.002,-1.05 -0.007,-2.119 -0.275,-3.121 -0.268,-1.003 -0.844,-1.947 -1.68,-2.323 0.589,-0.784 1.193,-1.6 1.457,-2.599 0.263,-0.999 0.089,-2.237 -0.644,-2.834 -0.933,-0.76 -2.278,-0.193 -3.301,-0.771 -0.984,-0.558 -1.361,-1.973 -2.17,-2.836 -0.23,-0.255 -0.511,-0.461 -0.824,-0.605 -0.581,-0.265 -1.242,-0.3 -1.848,-0.098 -0.913,0.327 -1.651,1.248 -1.875,2.336 -0.196,0.953 -0.015,1.955 -0.075,2.934 -0.06,0.978 -0.499,2.07 -1.322,2.243 -0.993,0.209 -1.782,-1.053 -1.95,-2.221 -0.167,-1.167 -0.001,-2.413 -0.388,-3.507 -0.456,-1.291 -1.715,-2.121 -2.892,-1.904 -1.176,0.216 -2.155,1.457 -2.248,2.849 -0.077,1.139 0.316,2.506 -0.393,3.286 -0.75,0.825 -2.044,0.086 -2.547,-0.969 -0.502,-1.055 -0.573,-2.33 -1.058,-3.396 -0.493,-1.082 -1.418,-1.881 -2.445,-2.11 -1.067,-0.217 -2.174,0.126 -2.931,0.908l0.062 -0.072zm0 0l0 0 0 0z"/>
   </g>
   <path class="fil2" d="M70.69 91.875l-2.915 0.019c-0.311,0.009 -0.621,-0.054 -0.904,-0.183 -0.117,-0.054 -0.23,-0.119 -0.335,-0.193 -0.311,-0.242 -0.449,-0.564 -0.379,-0.882l0.635 -2.868c0.119,-0.541 0.794,-0.938 1.604,-0.943l1.61 -0.01c0.809,-0.005 1.489,0.383 1.615,0.923l0.671 2.86c0.074,0.317 -0.06,0.64 -0.368,0.886 -0.357,0.261 -0.791,0.399 -1.234,0.391l0 0z"/>
   <path class="fil2" d="M69.327 47.668c-1.772,0.013 -3.189,3.049 -3.182,4.246l0.014 2.166 6.416 -0.04 -0.014 -2.167c-0.008,-1.196 -1.462,-4.214 -3.234,-4.205z"/>
   <path class="fil2" d="M43.379 66.826c-0.32,-0.146 -0.461,-0.524 -0.315,-0.844 0.031,-0.067 0.074,-0.129 0.126,-0.182 0.119,-0.121 0.28,-0.189 0.449,-0.189l33.136 -0.209c0.092,0 0.184,0.019 0.269,0.058 0.225,0.103 0.37,0.327 0.371,0.575 0.001,0.092 -0.019,0.183 -0.057,0.267 -0.103,0.226 -0.327,0.371 -0.575,0.373l0 0 -33.136 0.208c-0.092,0.001 -0.184,-0.019 -0.268,-0.057l0 0z"/>
   <rect class="fil3" transform="matrix(0.540448 -0.00339579 0.00339579 0.540448 64.6441 56.1812)" width="17.526" height="59.172"/>
   <path class="fil2" d="M59.962 9.512c-1.772,0.013 -3.189,3.049 -3.182,4.246l0.014 2.166 6.416 -0.04 -0.013 -2.167c-0.009,-1.196 -1.463,-4.214 -3.235,-4.205z"/>
   <path class="fil2" d="M62.032 91.584l-2.915 0.019c-0.311,0.009 -0.621,-0.054 -0.904,-0.183 -0.118,-0.054 -0.23,-0.119 -0.335,-0.193 -0.311,-0.242 -0.45,-0.564 -0.379,-0.882l0.634 -2.868c0.12,-0.541 0.795,-0.938 1.604,-0.943l1.61 -0.01c0.81,-0.005 1.49,0.383 1.616,0.922l0.671 2.861c0.074,0.317 -0.06,0.64 -0.368,0.886 -0.357,0.261 -0.792,0.399 -1.234,0.391l0 0z"/>
   <path class="fil2" d="M52.964 91.874l-2.915 0.018c-0.311,0.009 -0.621,-0.053 -0.904,-0.183 -0.117,-0.053 -0.23,-0.118 -0.335,-0.193 -0.311,-0.242 -0.449,-0.563 -0.379,-0.881l0.635 -2.869c0.119,-0.541 0.794,-0.938 1.604,-0.943l1.61 -0.01c0.809,-0.005 1.489,0.383 1.615,0.923l0.671 2.86c0.074,0.317 -0.06,0.64 -0.368,0.886 -0.357,0.262 -0.791,0.399 -1.234,0.391l0 0.001z"/>
   <rect class="fil3" transform="matrix(0.540448 -0.00339579 0.00339579 0.540448 55.3135 23.4651)" width="17.526" height="119.609"/>
   <g>
    <polygon class="fil2" points="60.33,54.597 60.335,52.267 60.946,52.265 60.942,54.588 60.774,88.432 60.163,88.436 "/>
   </g>
   <g>
    <polygon class="fil2" points="70.951,57.512 70.956,55.183 71.567,55.18 71.562,57.503 71.394,91.348 70.783,91.351 "/>
   </g>
   <path class="fil3" d="M66.523 29.358l-12.834 0.081c-0.195,-1.357 0.229,-7.659 1.414,-9.044l0.352 -1.677 8.862 -0.056 0.428 1.651c1.249,1.109 1.77,7.448 1.778,9.045z"/>
   <path class="fil3" d="M64.592 18.867l-9.144 0.057c-0.338,0.002 -0.613,-0.181 -0.614,-0.409 0,-0.032 0.005,-0.065 0.016,-0.096l1.513 -4.343c0.065,-0.186 0.31,-0.319 0.592,-0.32l6.065 -0.038c0.282,-0.002 0.529,0.127 0.596,0.312l1.567 4.324c0.081,0.221 -0.12,0.445 -0.448,0.5 -0.047,0.008 -0.095,0.012 -0.143,0.013z"/>
   <path class="fil2" d="M55.597 54.199c0,-0.001 -0.001,-0.001 -0.002,-0.001 -0.081,-0.037 -0.157,-0.084 -0.227,-0.139 -0.205,-0.15 -0.329,-0.387 -0.336,-0.642l-0.075 -12.033c-0.003,-0.498 0.493,-0.906 1.106,-0.91l8.186 -0.052c0.614,-0.004 1.115,0.399 1.118,0.897l0.076 12.033c-0.002,0.114 -0.027,0.227 -0.075,0.331 -0.056,0.125 -0.144,0.233 -0.253,0.315 -0.222,0.174 -0.497,0.267 -0.779,0.264l-8.186 0.052c-0.19,0.002 -0.379,-0.037 -0.553,-0.115l0 0z"/>
   <rect class="fil3" transform="matrix(0.540448 -0.00339579 0.00339579 0.540448 46.3625 56.183)" width="17.526" height="59.172"/>
   <path class="fil2" d="M61.608 18.029l-2.778 0.017c-0.536,0.004 -0.976,-0.611 -0.981,-1.37 -0.004,-0.759 0.428,-1.38 0.964,-1.383l2.777 -0.017c0.536,-0.004 0.977,0.611 0.981,1.37 0.005,0.759 -0.427,1.379 -0.963,1.383z"/>
   <path class="fil2" d="M51.23 47.669c-1.772,0.012 -3.189,3.049 -3.182,4.245l0.014 2.167 6.416 -0.041 -0.013 -2.166c-0.008,-1.197 -1.463,-4.215 -3.235,-4.205z"/>
   <path class="fil2" d="M74.071 69.235c-0.181,0 -0.361,-0.038 -0.526,-0.114 -0.442,-0.202 -0.727,-0.642 -0.731,-1.127l-0.022 -3.526c-0.001,-0.181 0.038,-0.361 0.113,-0.526 0.287,-0.627 1.028,-0.903 1.655,-0.616 0.441,0.201 0.726,0.641 0.73,1.126l0.022 3.526c0.001,0.181 -0.038,0.361 -0.113,0.526 -0.202,0.442 -0.643,0.727 -1.128,0.73l0 0.001z"/>
   <path class="fil2" d="M46.203 69.421c-0.181,0.001 -0.361,-0.038 -0.526,-0.113 -0.442,-0.202 -0.727,-0.642 -0.731,-1.128l-0.022 -3.526c-0.001,-0.181 0.038,-0.36 0.113,-0.525 0.287,-0.627 1.028,-0.903 1.655,-0.617 0.441,0.202 0.726,0.642 0.73,1.127l0.022 3.525c0.001,0.182 -0.038,0.361 -0.113,0.527 -0.202,0.441 -0.642,0.726 -1.128,0.73l0 0z"/>
   <path class="fil3" d="M74.893 61.929l-10.984 0.069c-0.167,-1.161 0.196,-6.554 1.21,-7.74l0.889 -1.439 6.623 -0.182 0.74 1.551c1.95,0.2 2.52,5.52 1.522,7.741z"/>
   <path class="fil2" d="M70.82 59.715l-2.778 0.017c-0.536,0.004 -0.977,-0.81 -0.983,-1.814 -0.006,-1.003 0.425,-1.823 0.961,-1.826l2.777 -0.017c0.536,-0.004 0.978,0.81 0.984,1.814 0.006,1.003 -0.425,1.822 -0.961,1.826z"/>
   <g>
    <polygon class="fil2" points="48.886,56.313 48.891,53.983 49.502,53.981 49.497,56.303 49.329,90.148 48.718,90.152 "/>
   </g>
   <path class="fil3" d="M56.796 61.93l-10.984 0.069c-1.021,-1.302 -1,-6.751 1.21,-7.741l0.89 -1.439 6.622 -0.182 0.741 1.551c1.069,0.949 1.514,6.375 1.521,7.742z"/>
   <path class="fil2" d="M52.72 59.229l-2.777 0.017c-0.536,0.004 -0.977,-0.701 -0.982,-1.57 -0.006,-0.87 0.426,-1.58 0.962,-1.583l2.778 -0.018c0.536,-0.003 0.976,0.701 0.982,1.571 0.005,0.869 -0.427,1.579 -0.963,1.583z"/>
   <polygon class="fil3" points="74.222,73.073 79.662,77.489 80.05,86.652 73.537,83.979 "/>
   <polygon class="fil4" points="64.878,55.849 66.721,60.798 66.824,83.387 64.609,84.033 "/>
   <polygon class="fil4" points="56.087,55.554 54.161,60.472 53.681,83.056 55.885,83.74 "/>
   <polygon class="fil3" points="47.009,74.829 41.201,78.749 40.007,87.842 46.73,85.754 "/>
  </g>
 </g>
 <g id="Layer_x0020_1_0">
  <metadata id="CorelCorpID_1Corel-Layer"/>
  <path class="fil5" d="M99.926 43.063c-0.55,0.366 -1.112,-0.506 -0.552,-0.855 0.549,-0.366 1.112,0.506 0.552,0.855z"/>
  <path class="fil5" d="M24.846 81.875c-0.55,0.368 -1.111,-0.506 -0.551,-0.855 0.549,-0.366 1.111,0.506 0.551,0.855z"/>
  <path class="fil5" d="M82.037 12.858c-0.55,0.366 -1.111,-0.506 -0.551,-0.855 0.55,-0.366 1.111,0.506 0.551,0.855z"/>
  <path class="fil5" d="M41.537 32.066c-0.55,0.366 -1.112,-0.506 -0.552,-0.855 0.549,-0.366 1.112,0.506 0.552,0.855z"/>
  <path class="fil5" d="M53.214 10.125c-0.55,0.367 -1.112,-0.504 -0.552,-0.855 0.549,-0.366 1.112,0.506 0.552,0.855z"/>
  <path class="fil5" d="M79.766 39.613c-0.55,0.366 -1.111,-0.506 -0.551,-0.855 0.549,-0.366 1.111,0.505 0.551,0.855z"/>
  <polygon class="fil5" points="90.734,62.159 90.385,62.082 90.461,61.732 90.228,61.682 90.151,62.032 89.801,61.954 89.751,62.188 90.101,62.265 90.023,62.615 90.256,62.665 90.334,62.315 90.684,62.392 "/>
  <path class="fil6" d="M40.132 60.688l-0.641 -27.492 -0.286 27.501c-0.034,0.106 -0.032,0.219 0.006,0.322 0.094,0.254 0.376,0.384 0.629,0.291 0.251,-0.092 0.382,-0.37 0.291,-0.622l0 0 0.001 0z"/>
  <circle class="fil5" cx="98.028" cy="80.356" r="1.524"/>
  <circle class="fil5" cx="88.243" cy="104.986" r="1.524"/>
  <circle class="fil5" cx="26.141" cy="95.608" r="2.969"/>
  <circle class="fil5" cx="25.231" cy="54.366" r="1.524"/>
  <path class="fil6" d="M83.571 72.253l-0.641 -27.492 -0.286 27.501c-0.034,0.106 -0.032,0.219 0.006,0.322 0.094,0.254 0.376,0.384 0.629,0.291 0.251,-0.092 0.382,-0.37 0.292,-0.622l0 0 0 0z"/>
 </g>
</svg>
