<?xml version="1.0" encoding="UTF-8"?>
<!DOCTYPE svg PUBLIC "-//W3C//DTD SVG 1.1//EN" "http://www.w3.org/Graphics/SVG/1.1/DTD/svg11.dtd">
<!-- Creator: CorelDRAW Standard 2021 (64-Bit) -->
<svg xmlns="http://www.w3.org/2000/svg" xml:space="preserve" width="64px" height="118px" version="1.1" style="shape-rendering:geometricPrecision; text-rendering:geometricPrecision; image-rendering:optimizeQuality; fill-rule:evenodd; clip-rule:evenodd"
viewBox="0 0 12.258 22.547"
 xmlns:xlink="http://www.w3.org/1999/xlink"
 xmlns:xodm="http://www.corel.com/coreldraw/odm/2003">
 <defs>
  <style type="text/css">
   <![CDATA[
    .fil0 {fill:#4459EA;fill-rule:nonzero}
    .fil1 {fill:#FBAF00;fill-rule:nonzero}
   ]]>
  </style>
 </defs>
 <g id="Layer_x0020_1">
  <metadata id="CorelCorpID_0Corel-Layer"/>
  <path class="fil0" d="M1.994 9.588c0,0 0.65,4.24 0.774,4.727 -0.315,-0.019 -2.006,0.468 -2.598,1.308 -0.382,0.535 -0.258,-4.603 1.824,-6.035z"/>
  <path class="fil0" d="M10.264 9.588c0,0 -0.649,4.24 -0.773,4.727 0.315,-0.019 2.005,0.468 2.597,1.308 0.382,0.535 0.258,-4.603 -1.824,-6.035z"/>
  <path class="fil0" d="M10.245 5.157c-0.229,-1.815 -4.097,-5.147 -4.106,-5.157l0 0 0 0 0 0 0 0c-0.01,0.01 -3.877,3.342 -4.107,5.157 -0.267,2.053 1.041,9.129 1.041,9.129l2.817 0.01c-0.305,-1.585 -1.012,-4.527 0.239,-4.718 1.223,0.029 0.631,3.152 0.43,4.718l2.636 -0.01c0,0 1.308,-7.076 1.05,-9.129zm-4.106 1.022c-0.812,0 -1.461,-0.65 -1.461,-1.461 0,-0.812 0.649,-1.462 1.461,-1.462 0.812,0 1.461,0.65 1.461,1.462 0,0.811 -0.659,1.461 -1.461,1.461z"/>
  <path class="fil1" d="M9.013 16.34c0.124,-0.583 0.191,-1.175 0.201,-1.757 -0.258,0 -0.497,0 -0.736,0l0 0c-0.057,0 -0.114,0 -0.171,0l0 0c-0.172,0 -0.335,0 -0.497,0l0 0c-1.566,0 -2.311,0 -3.113,0 -0.201,0 -0.392,0 -0.592,0 -0.029,0 -0.048,0 -0.077,0 -0.277,0 -0.554,0 -0.831,0 0.058,0.592 0.182,1.203 0.335,1.814 -0.172,1.69 0.611,3.906 0.611,3.906 0,0 0.258,-0.239 0.592,-0.63 0.754,1.671 1.499,2.874 1.499,2.874 0,0 0.831,-1.184 1.614,-2.855 0.325,0.382 0.573,0.611 0.573,0.611 0,0 0.802,-2.273 0.592,-3.963 0.01,0 0.01,0 0,0z"/>
 </g>
</svg>
