<?xml version="1.0" encoding="UTF-8"?>
<!DOCTYPE svg PUBLIC "-//W3C//DTD SVG 1.1//EN" "http://www.w3.org/Graphics/SVG/1.1/DTD/svg11.dtd">
<!-- Creator: CorelDRAW Standard 2021 (64-Bit) -->
<svg xmlns="http://www.w3.org/2000/svg" xml:space="preserve" width="64px" height="60px" version="1.1" style="shape-rendering:geometricPrecision; text-rendering:geometricPrecision; image-rendering:optimizeQuality; fill-rule:evenodd; clip-rule:evenodd"
viewBox="0 0 87.424 82.46"
 xmlns:xlink="http://www.w3.org/1999/xlink"
 xmlns:xodm="http://www.corel.com/coreldraw/odm/2003">
 <defs>
  <style type="text/css">
   <![CDATA[
    .fil1 {fill:#4459EA;fill-rule:nonzero}
    .fil0 {fill:#FBAF00;fill-rule:nonzero}
   ]]>
  </style>
 </defs>
 <g id="Layer_x0020_1">
  <metadata id="CorelCorpID_0Corel-Layer"/>
  <g id="_2582219302976">
   <path class="fil0" d="M0 27.931c0.482,5.816 5.223,10.373 11.002,10.373 5.409,0 9.891,-3.964 10.854,-9.187 0.852,5.408 5.409,9.557 10.928,9.557 5.409,0 9.891,-3.964 10.854,-9.187 0.815,5.409 5.409,9.558 10.928,9.558 5.409,0 9.891,-3.964 10.854,-9.187 0.852,5.408 5.409,9.557 10.928,9.557 6.112,0 11.076,-5.075 11.076,-11.335 0,-0.037 0,-0.075 0,-0.112l-87.424 0 0 -0.037z"/>
   <path class="fil1" d="M68.569 39.415l0 35.525c0,1.556 -1.26,2.853 -2.853,2.853l-44.008 0c-1.556,0 -2.853,-1.26 -2.853,-2.853l0 -36.636c-1.926,1.963 -4.556,3.223 -7.445,3.334l0 37.118c0,2.037 1.667,3.704 3.704,3.704l57.233 0c2.038,0 3.705,-1.667 3.705,-3.704l0 -36.044c-2.927,-0.074 -5.557,-1.334 -7.483,-3.297z"/>
   <path class="fil1" d="M74.311 2.63c0,0 -0.963,-2.63 -4.89,-2.63 -2.186,0 -49.01,0 -51.455,0 -3.889,0 -4.852,2.63 -4.852,2.63l-11.595 22.153 64.605 0 19.782 0 -11.595 -22.153z"/>
   <path class="fil0" d="M50.232 72.866c0.407,0.63 1.259,0.778 1.889,0.333l13.855 -10.002c0.629,-0.444 0.741,-1.296 0.333,-1.926l0 0c-0.444,-0.63 -1.259,-0.778 -1.889,-0.333l-13.855 10.002c-0.592,0.444 -0.778,1.296 -0.333,1.926z"/>
   <path class="fil0" d="M63.531 67.05l-8.743 5.89c-0.629,0.408 -0.778,1.297 -0.407,1.926 0.407,0.63 1.259,0.815 1.889,0.408l8.743 -5.89c0.629,-0.408 0.778,-1.26 0.37,-1.926 -0.37,-0.667 -1.222,-0.853 -1.852,-0.408z"/>
  </g>
 </g>
</svg>
